solid cat_watch_enclosure
 facet normal 0 0 1
  outer loop
   vertex -41 -31 18
   vertex 41 -31 18
   vertex 41 31 18
  endloop
 endfacet
 facet normal 0 0 1
  outer loop
   vertex -41 -31 18
   vertex 41 31 18
   vertex -41 31 18
  endloop
 endfacet
 facet normal 0 0 -1
  outer loop
   vertex -41 -31 48
   vertex -41 31 48
   vertex 41 31 48
  endloop
 endfacet
 facet normal 0 0 -1
  outer loop
   vertex -41 -31 48
   vertex 41 31 48
   vertex 41 -31 48
  endloop
 endfacet
 facet normal 0 1 0
  outer loop
   vertex -41 -31 18
   vertex -41 -31 48
   vertex 41 -31 48
  endloop
 endfacet
 facet normal 0 1 0
  outer loop
   vertex -41 -31 18
   vertex 41 -31 48
   vertex 41 -31 18
  endloop
 endfacet
 facet normal -1 0 0
  outer loop
   vertex 41 -31 18
   vertex 41 -31 48
   vertex 41 31 48
  endloop
 endfacet
 facet normal -1 0 0
  outer loop
   vertex 41 -31 18
   vertex 41 31 48
   vertex 41 31 18
  endloop
 endfacet
 facet normal 0 -1 0
  outer loop
   vertex 41 31 18
   vertex 41 31 48
   vertex -41 31 48
  endloop
 endfacet
 facet normal 0 -1 0
  outer loop
   vertex 41 31 18
   vertex -41 31 48
   vertex -41 31 18
  endloop
 endfacet
 facet normal 1 0 0
  outer loop
   vertex -41 31 18
   vertex -41 31 48
   vertex -41 -31 48
  endloop
 endfacet
 facet normal 1 0 0
  outer loop
   vertex -41 31 18
   vertex -41 -31 48
   vertex -41 -31 18
  endloop
 endfacet
 facet normal 0 0 1
  outer loop
   vertex -34 -24 20
   vertex 34 -24 20
   vertex 34 24 20
  endloop
 endfacet
 facet normal 0 0 1
  outer loop
   vertex -34 -24 20
   vertex 34 24 20
   vertex -34 24 20
  endloop
 endfacet
 facet normal 0 0 -1
  outer loop
   vertex -34 -24 43
   vertex -34 24 43
   vertex 34 24 43
  endloop
 endfacet
 facet normal 0 0 -1
  outer loop
   vertex -34 -24 43
   vertex 34 24 43
   vertex 34 -24 43
  endloop
 endfacet
 facet normal 0 1 0
  outer loop
   vertex -34 -24 20
   vertex -34 -24 43
   vertex 34 -24 43
  endloop
 endfacet
 facet normal 0 1 0
  outer loop
   vertex -34 -24 20
   vertex 34 -24 43
   vertex 34 -24 20
  endloop
 endfacet
 facet normal -1 0 0
  outer loop
   vertex 34 -24 20
   vertex 34 -24 43
   vertex 34 24 43
  endloop
 endfacet
 facet normal -1 0 0
  outer loop
   vertex 34 -24 20
   vertex 34 24 43
   vertex 34 24 20
  endloop
 endfacet
 facet normal 0 -1 0
  outer loop
   vertex 34 24 20
   vertex 34 24 43
   vertex -34 24 43
  endloop
 endfacet
 facet normal 0 -1 0
  outer loop
   vertex 34 24 20
   vertex -34 24 43
   vertex -34 24 20
  endloop
 endfacet
 facet normal 1 0 0
  outer loop
   vertex -34 24 20
   vertex -34 24 43
   vertex -34 -24 43
  endloop
 endfacet
 facet normal 1 0 0
  outer loop
   vertex -34 24 20
   vertex -34 -24 43
   vertex -34 -24 20
  endloop
 endfacet
 facet normal 0.9978589232386035 0 0.06540312923014277
  outer loop
   vertex 7 -32.5 37
   vertex 6.940114029616673 -32.5 37.91368334554036
   vertex 6.940114029616673 -35.5 37.91368334554036
  endloop
 endfacet
 facet normal 0.9978589232386035 0 0.06540312923014277
  outer loop
   vertex 7 -32.5 37
   vertex 6.940114029616673 -35.5 37.91368334554036
   vertex 7 -35.5 37
  endloop
 endfacet
 facet normal 0.9807852804032302 0 0.19509032201612883
  outer loop
   vertex 6.940114029616673 -32.5 37.91368334554036
   vertex 6.761480784023478 -32.5 38.811733315717646
   vertex 6.761480784023478 -35.5 38.811733315717646
  endloop
 endfacet
 facet normal 0.9807852804032302 0 0.19509032201612883
  outer loop
   vertex 6.940114029616673 -32.5 37.91368334554036
   vertex 6.761480784023478 -35.5 38.811733315717646
   vertex 6.940114029616673 -35.5 37.91368334554036
  endloop
 endfacet
 facet normal 0.9469301294951052 0 0.321439465303163
  outer loop
   vertex 6.761480784023478 -32.5 38.811733315717646
   vertex 6.467156727579007 -32.5 39.678784026555626
   vertex 6.467156727579007 -35.5 39.678784026555626
  endloop
 endfacet
 facet normal 0.9469301294951052 0 0.321439465303163
  outer loop
   vertex 6.761480784023478 -32.5 38.811733315717646
   vertex 6.467156727579007 -35.5 39.678784026555626
   vertex 6.761480784023478 -35.5 38.811733315717646
  endloop
 endfacet
 facet normal 0.8968727415326894 0 0.4422886902189991
  outer loop
   vertex 6.467156727579007 -32.5 39.678784026555626
   vertex 6.062177826491071 -32.5 40.5
   vertex 6.062177826491071 -35.5 40.5
  endloop
 endfacet
 facet normal 0.8968727415326894 0 0.4422886902189991
  outer loop
   vertex 6.467156727579007 -32.5 39.678784026555626
   vertex 6.062177826491071 -35.5 40.5
   vertex 6.467156727579007 -35.5 39.678784026555626
  endloop
 endfacet
 facet normal 0.8314696123025459 0 0.5555702330196011
  outer loop
   vertex 6.062177826491071 -32.5 40.5
   vertex 5.553473382038646 -32.5 41.26133000306105
   vertex 5.553473382038646 -35.5 41.26133000306105
  endloop
 endfacet
 facet normal 0.8314696123025459 0 0.5555702330196011
  outer loop
   vertex 6.062177826491071 -32.5 40.5
   vertex 5.553473382038646 -35.5 41.26133000306105
   vertex 6.062177826491071 -35.5 40.5
  endloop
 endfacet
 facet normal 0.7518398074789746 0 0.6593458151000721
  outer loop
   vertex 5.553473382038646 -32.5 41.26133000306105
   vertex 4.949747468305833 -32.5 41.94974746830583
   vertex 4.949747468305833 -35.5 41.94974746830583
  endloop
 endfacet
 facet normal 0.7518398074789746 0 0.6593458151000721
  outer loop
   vertex 5.553473382038646 -32.5 41.26133000306105
   vertex 4.949747468305833 -35.5 41.94974746830583
   vertex 5.553473382038646 -35.5 41.26133000306105
  endloop
 endfacet
 facet normal 0.6593458151000708 0 0.7518398074789757
  outer loop
   vertex 4.949747468305833 -32.5 41.94974746830583
   vertex 4.261330003061045 -32.5 42.553473382038646
   vertex 4.261330003061045 -35.5 42.553473382038646
  endloop
 endfacet
 facet normal 0.6593458151000708 0 0.7518398074789757
  outer loop
   vertex 4.949747468305833 -32.5 41.94974746830583
   vertex 4.261330003061045 -35.5 42.553473382038646
   vertex 4.949747468305833 -35.5 41.94974746830583
  endloop
 endfacet
 facet normal 0.5555702330196042 0 0.8314696123025438
  outer loop
   vertex 4.261330003061045 -32.5 42.553473382038646
   vertex 3.500000000000001 -32.5 43.06217782649107
   vertex 3.500000000000001 -35.5 43.06217782649107
  endloop
 endfacet
 facet normal 0.5555702330196042 0 0.8314696123025438
  outer loop
   vertex 4.261330003061045 -32.5 42.553473382038646
   vertex 3.500000000000001 -35.5 43.06217782649107
   vertex 4.261330003061045 -35.5 42.553473382038646
  endloop
 endfacet
 facet normal 0.44228869021900097 0 0.8968727415326884
  outer loop
   vertex 3.500000000000001 -32.5 43.06217782649107
   vertex 2.678784026555629 -32.5 43.46715672757901
   vertex 2.678784026555629 -35.5 43.46715672757901
  endloop
 endfacet
 facet normal 0.44228869021900097 0 0.8968727415326884
  outer loop
   vertex 3.500000000000001 -32.5 43.06217782649107
   vertex 2.678784026555629 -35.5 43.46715672757901
   vertex 3.500000000000001 -35.5 43.06217782649107
  endloop
 endfacet
 facet normal 0.32143946530315715 0 0.9469301294951071
  outer loop
   vertex 2.678784026555629 -32.5 43.46715672757901
   vertex 1.8117333157176452 -32.5 43.761480784023476
   vertex 1.8117333157176452 -35.5 43.761480784023476
  endloop
 endfacet
 facet normal 0.32143946530315715 0 0.9469301294951071
  outer loop
   vertex 2.678784026555629 -32.5 43.46715672757901
   vertex 1.8117333157176452 -35.5 43.761480784023476
   vertex 2.678784026555629 -35.5 43.46715672757901
  endloop
 endfacet
 facet normal 0.19509032201613066 0 0.9807852804032301
  outer loop
   vertex 1.8117333157176452 -32.5 43.761480784023476
   vertex 0.913683345540362 -32.5 43.94011402961667
   vertex 0.913683345540362 -35.5 43.94011402961667
  endloop
 endfacet
 facet normal 0.19509032201613066 0 0.9807852804032301
  outer loop
   vertex 1.8117333157176452 -32.5 43.761480784023476
   vertex 0.913683345540362 -35.5 43.94011402961667
   vertex 1.8117333157176452 -35.5 43.761480784023476
  endloop
 endfacet
 facet normal 0.0654031292301429 0 0.9978589232386035
  outer loop
   vertex 0.913683345540362 -32.5 43.94011402961667
   vertex 4.286263797015736e-16 -32.5 44
   vertex 4.286263797015736e-16 -35.5 44
  endloop
 endfacet
 facet normal 0.0654031292301429 0 0.9978589232386035
  outer loop
   vertex 0.913683345540362 -32.5 43.94011402961667
   vertex 4.286263797015736e-16 -35.5 44
   vertex 0.913683345540362 -35.5 43.94011402961667
  endloop
 endfacet
 facet normal -0.06540312923014288 0 0.9978589232386035
  outer loop
   vertex 4.286263797015736e-16 -32.5 44
   vertex -0.9136833455403612 -32.5 43.94011402961667
   vertex -0.9136833455403612 -35.5 43.94011402961667
  endloop
 endfacet
 facet normal -0.06540312923014288 0 0.9978589232386035
  outer loop
   vertex 4.286263797015736e-16 -32.5 44
   vertex -0.9136833455403612 -35.5 43.94011402961667
   vertex 4.286263797015736e-16 -35.5 44
  endloop
 endfacet
 facet normal -0.19509032201613066 0 0.9807852804032301
  outer loop
   vertex -0.9136833455403612 -32.5 43.94011402961667
   vertex -1.8117333157176443 -32.5 43.761480784023476
   vertex -1.8117333157176443 -35.5 43.761480784023476
  endloop
 endfacet
 facet normal -0.19509032201613066 0 0.9807852804032301
  outer loop
   vertex -0.9136833455403612 -32.5 43.94011402961667
   vertex -1.8117333157176443 -35.5 43.761480784023476
   vertex -0.9136833455403612 -35.5 43.94011402961667
  endloop
 endfacet
 facet normal -0.32143946530315776 0 0.9469301294951071
  outer loop
   vertex -1.8117333157176443 -32.5 43.761480784023476
   vertex -2.6787840265556264 -32.5 43.46715672757901
   vertex -2.6787840265556264 -35.5 43.46715672757901
  endloop
 endfacet
 facet normal -0.32143946530315776 0 0.9469301294951071
  outer loop
   vertex -1.8117333157176443 -32.5 43.761480784023476
   vertex -2.6787840265556264 -35.5 43.46715672757901
   vertex -1.8117333157176443 -35.5 43.761480784023476
  endloop
 endfacet
 facet normal -0.44228869021900097 0 0.8968727415326884
  outer loop
   vertex -2.6787840265556264 -32.5 43.46715672757901
   vertex -3.4999999999999982 -32.5 43.06217782649107
   vertex -3.4999999999999982 -35.5 43.06217782649107
  endloop
 endfacet
 facet normal -0.44228869021900097 0 0.8968727415326884
  outer loop
   vertex -2.6787840265556264 -32.5 43.46715672757901
   vertex -3.4999999999999982 -35.5 43.06217782649107
   vertex -2.6787840265556264 -35.5 43.46715672757901
  endloop
 endfacet
 facet normal -0.5555702330196028 0 0.8314696123025447
  outer loop
   vertex -3.4999999999999982 -32.5 43.06217782649107
   vertex -4.261330003061045 -32.5 42.553473382038646
   vertex -4.261330003061045 -35.5 42.553473382038646
  endloop
 endfacet
 facet normal -0.5555702330196028 0 0.8314696123025447
  outer loop
   vertex -3.4999999999999982 -32.5 43.06217782649107
   vertex -4.261330003061045 -35.5 42.553473382038646
   vertex -3.4999999999999982 -35.5 43.06217782649107
  endloop
 endfacet
 facet normal -0.6593458151000713 0 0.7518398074789752
  outer loop
   vertex -4.261330003061045 -32.5 42.553473382038646
   vertex -4.949747468305832 -32.5 41.94974746830583
   vertex -4.949747468305832 -35.5 41.94974746830583
  endloop
 endfacet
 facet normal -0.6593458151000713 0 0.7518398074789752
  outer loop
   vertex -4.261330003061045 -32.5 42.553473382038646
   vertex -4.949747468305832 -35.5 41.94974746830583
   vertex -4.261330003061045 -35.5 42.553473382038646
  endloop
 endfacet
 facet normal -0.7518398074789746 0 0.6593458151000721
  outer loop
   vertex -4.949747468305832 -32.5 41.94974746830583
   vertex -5.5534733820386455 -32.5 41.26133000306105
   vertex -5.5534733820386455 -35.5 41.26133000306105
  endloop
 endfacet
 facet normal -0.7518398074789746 0 0.6593458151000721
  outer loop
   vertex -4.949747468305832 -32.5 41.94974746830583
   vertex -5.5534733820386455 -35.5 41.26133000306105
   vertex -4.949747468305832 -35.5 41.94974746830583
  endloop
 endfacet
 facet normal -0.8314696123025456 0 0.5555702330196018
  outer loop
   vertex -5.5534733820386455 -32.5 41.26133000306105
   vertex -6.062177826491071 -32.5 40.5
   vertex -6.062177826491071 -35.5 40.5
  endloop
 endfacet
 facet normal -0.8314696123025456 0 0.5555702330196018
  outer loop
   vertex -5.5534733820386455 -32.5 41.26133000306105
   vertex -6.062177826491071 -35.5 40.5
   vertex -5.5534733820386455 -35.5 41.26133000306105
  endloop
 endfacet
 facet normal -0.8968727415326879 0 0.44228869021900213
  outer loop
   vertex -6.062177826491071 -32.5 40.5
   vertex -6.467156727579007 -32.5 39.67878402655563
   vertex -6.467156727579007 -35.5 39.67878402655563
  endloop
 endfacet
 facet normal -0.8968727415326879 0 0.44228869021900213
  outer loop
   vertex -6.062177826491071 -32.5 40.5
   vertex -6.467156727579007 -35.5 39.67878402655563
   vertex -6.062177826491071 -35.5 40.5
  endloop
 endfacet
 facet normal -0.9469301294951059 0 0.3214394653031606
  outer loop
   vertex -6.467156727579007 -32.5 39.67878402655563
   vertex -6.761480784023478 -32.5 38.811733315717646
   vertex -6.761480784023478 -35.5 38.811733315717646
  endloop
 endfacet
 facet normal -0.9469301294951059 0 0.3214394653031606
  outer loop
   vertex -6.467156727579007 -32.5 39.67878402655563
   vertex -6.761480784023478 -35.5 38.811733315717646
   vertex -6.467156727579007 -35.5 39.67878402655563
  endloop
 endfacet
 facet normal -0.9807852804032302 0 0.19509032201612883
  outer loop
   vertex -6.761480784023478 -32.5 38.811733315717646
   vertex -6.940114029616673 -32.5 37.91368334554036
   vertex -6.940114029616673 -35.5 37.91368334554036
  endloop
 endfacet
 facet normal -0.9807852804032302 0 0.19509032201612883
  outer loop
   vertex -6.761480784023478 -32.5 38.811733315717646
   vertex -6.940114029616673 -35.5 37.91368334554036
   vertex -6.761480784023478 -35.5 38.811733315717646
  endloop
 endfacet
 facet normal -0.9978589232386035 0 0.06540312923014277
  outer loop
   vertex -6.940114029616673 -32.5 37.91368334554036
   vertex -7 -32.5 37
   vertex -7 -35.5 37
  endloop
 endfacet
 facet normal -0.9978589232386035 0 0.06540312923014277
  outer loop
   vertex -6.940114029616673 -32.5 37.91368334554036
   vertex -7 -35.5 37
   vertex -6.940114029616673 -35.5 37.91368334554036
  endloop
 endfacet
 facet normal -0.9978589232386035 0 -0.06540312923014277
  outer loop
   vertex -7 -32.5 37
   vertex -6.940114029616673 -32.5 36.08631665445964
   vertex -6.940114029616673 -35.5 36.08631665445964
  endloop
 endfacet
 facet normal -0.9978589232386035 0 -0.06540312923014277
  outer loop
   vertex -7 -32.5 37
   vertex -6.940114029616673 -35.5 36.08631665445964
   vertex -7 -35.5 37
  endloop
 endfacet
 facet normal -0.9807852804032302 0 -0.19509032201612883
  outer loop
   vertex -6.940114029616673 -32.5 36.08631665445964
   vertex -6.761480784023478 -32.5 35.188266684282354
   vertex -6.761480784023478 -35.5 35.188266684282354
  endloop
 endfacet
 facet normal -0.9807852804032302 0 -0.19509032201612883
  outer loop
   vertex -6.940114029616673 -32.5 36.08631665445964
   vertex -6.761480784023478 -35.5 35.188266684282354
   vertex -6.940114029616673 -35.5 36.08631665445964
  endloop
 endfacet
 facet normal -0.9469301294951054 0 -0.3214394653031621
  outer loop
   vertex -6.761480784023478 -32.5 35.188266684282354
   vertex -6.467156727579008 -32.5 34.321215973444374
   vertex -6.467156727579008 -35.5 34.321215973444374
  endloop
 endfacet
 facet normal -0.9469301294951054 0 -0.3214394653031621
  outer loop
   vertex -6.761480784023478 -32.5 35.188266684282354
   vertex -6.467156727579008 -35.5 34.321215973444374
   vertex -6.761480784023478 -35.5 35.188266684282354
  endloop
 endfacet
 facet normal -0.8968727415326889 0 -0.4422886902189998
  outer loop
   vertex -6.467156727579008 -32.5 34.321215973444374
   vertex -6.062177826491071 -32.5 33.5
   vertex -6.062177826491071 -35.5 33.5
  endloop
 endfacet
 facet normal -0.8968727415326889 0 -0.4422886902189998
  outer loop
   vertex -6.467156727579008 -32.5 34.321215973444374
   vertex -6.062177826491071 -35.5 33.5
   vertex -6.467156727579008 -35.5 34.321215973444374
  endloop
 endfacet
 facet normal -0.8314696123025459 0 -0.5555702330196011
  outer loop
   vertex -6.062177826491071 -32.5 33.5
   vertex -5.553473382038646 -32.5 32.73866999693895
   vertex -5.553473382038646 -35.5 32.73866999693895
  endloop
 endfacet
 facet normal -0.8314696123025459 0 -0.5555702330196011
  outer loop
   vertex -6.062177826491071 -32.5 33.5
   vertex -5.553473382038646 -35.5 32.73866999693895
   vertex -6.062177826491071 -35.5 33.5
  endloop
 endfacet
 facet normal -0.751839807478976 0 -0.6593458151000705
  outer loop
   vertex -5.553473382038646 -32.5 32.73866999693895
   vertex -4.949747468305835 -32.5 32.05025253169417
   vertex -4.949747468305835 -35.5 32.05025253169417
  endloop
 endfacet
 facet normal -0.751839807478976 0 -0.6593458151000705
  outer loop
   vertex -5.553473382038646 -32.5 32.73866999693895
   vertex -4.949747468305835 -35.5 32.05025253169417
   vertex -5.553473382038646 -35.5 32.73866999693895
  endloop
 endfacet
 facet normal -0.6593458151000698 0 -0.7518398074789765
  outer loop
   vertex -4.949747468305835 -32.5 32.05025253169417
   vertex -4.261330003061046 -32.5 31.446526617961354
   vertex -4.261330003061046 -35.5 31.446526617961354
  endloop
 endfacet
 facet normal -0.6593458151000698 0 -0.7518398074789765
  outer loop
   vertex -4.949747468305835 -32.5 32.05025253169417
   vertex -4.261330003061046 -35.5 31.446526617961354
   vertex -4.949747468305835 -35.5 32.05025253169417
  endloop
 endfacet
 facet normal -0.5555702330196022 0 -0.8314696123025452
  outer loop
   vertex -4.261330003061046 -32.5 31.446526617961354
   vertex -3.500000000000003 -32.5 30.93782217350893
   vertex -3.500000000000003 -35.5 30.93782217350893
  endloop
 endfacet
 facet normal -0.5555702330196022 0 -0.8314696123025452
  outer loop
   vertex -4.261330003061046 -32.5 31.446526617961354
   vertex -3.500000000000003 -35.5 30.93782217350893
   vertex -4.261330003061046 -35.5 31.446526617961354
  endloop
 endfacet
 facet normal -0.4422886902190021 0 -0.896872741532688
  outer loop
   vertex -3.500000000000003 -32.5 30.93782217350893
   vertex -2.6787840265556264 -32.5 30.53284327242099
   vertex -2.6787840265556264 -35.5 30.53284327242099
  endloop
 endfacet
 facet normal -0.4422886902190021 0 -0.896872741532688
  outer loop
   vertex -3.500000000000003 -32.5 30.93782217350893
   vertex -2.6787840265556264 -35.5 30.53284327242099
   vertex -3.500000000000003 -35.5 30.93782217350893
  endloop
 endfacet
 facet normal -0.32143946530315776 0 -0.9469301294951071
  outer loop
   vertex -2.6787840265556264 -32.5 30.53284327242099
   vertex -1.8117333157176443 -32.5 30.238519215976524
   vertex -1.8117333157176443 -35.5 30.238519215976524
  endloop
 endfacet
 facet normal -0.32143946530315776 0 -0.9469301294951071
  outer loop
   vertex -2.6787840265556264 -32.5 30.53284327242099
   vertex -1.8117333157176443 -35.5 30.238519215976524
   vertex -2.6787840265556264 -35.5 30.53284327242099
  endloop
 endfacet
 facet normal -0.19509032201613075 0 -0.9807852804032301
  outer loop
   vertex -1.8117333157176443 -32.5 30.238519215976524
   vertex -0.9136833455403615 -32.5 30.059885970383327
   vertex -0.9136833455403615 -35.5 30.059885970383327
  endloop
 endfacet
 facet normal -0.19509032201613075 0 -0.9807852804032301
  outer loop
   vertex -1.8117333157176443 -32.5 30.238519215976524
   vertex -0.9136833455403615 -35.5 30.059885970383327
   vertex -1.8117333157176443 -35.5 30.238519215976524
  endloop
 endfacet
 facet normal -0.06540312923014299 0 -0.9978589232386035
  outer loop
   vertex -0.9136833455403615 -32.5 30.059885970383327
   vertex -1.2858791391047208e-15 -32.5 30
   vertex -1.2858791391047208e-15 -35.5 30
  endloop
 endfacet
 facet normal -0.06540312923014299 0 -0.9978589232386035
  outer loop
   vertex -0.9136833455403615 -32.5 30.059885970383327
   vertex -1.2858791391047208e-15 -35.5 30
   vertex -0.9136833455403615 -35.5 30.059885970383327
  endloop
 endfacet
 facet normal 0.06540312923014299 0 -0.9978589232386035
  outer loop
   vertex -1.2858791391047208e-15 -32.5 30
   vertex 0.9136833455403589 -32.5 30.059885970383327
   vertex 0.9136833455403589 -35.5 30.059885970383327
  endloop
 endfacet
 facet normal 0.06540312923014299 0 -0.9978589232386035
  outer loop
   vertex -1.2858791391047208e-15 -32.5 30
   vertex 0.9136833455403589 -35.5 30.059885970383327
   vertex -1.2858791391047208e-15 -35.5 30
  endloop
 endfacet
 facet normal 0.19509032201612692 0 -0.9807852804032307
  outer loop
   vertex 0.9136833455403589 -32.5 30.059885970383327
   vertex 1.811733315717642 -32.5 30.23851921597652
   vertex 1.811733315717642 -35.5 30.23851921597652
  endloop
 endfacet
 facet normal 0.19509032201612692 0 -0.9807852804032307
  outer loop
   vertex 0.9136833455403589 -32.5 30.059885970383327
   vertex 1.811733315717642 -35.5 30.23851921597652
   vertex 0.9136833455403589 -35.5 30.059885970383327
  endloop
 endfacet
 facet normal 0.32143946530316125 0 -0.9469301294951059
  outer loop
   vertex 1.811733315717642 -32.5 30.23851921597652
   vertex 2.678784026555624 -32.5 30.53284327242099
   vertex 2.678784026555624 -35.5 30.53284327242099
  endloop
 endfacet
 facet normal 0.32143946530316125 0 -0.9469301294951059
  outer loop
   vertex 1.811733315717642 -32.5 30.23851921597652
   vertex 2.678784026555624 -35.5 30.53284327242099
   vertex 1.811733315717642 -35.5 30.23851921597652
  endloop
 endfacet
 facet normal 0.4422886902190021 0 -0.896872741532688
  outer loop
   vertex 2.678784026555624 -32.5 30.53284327242099
   vertex 3.500000000000001 -32.5 30.93782217350893
   vertex 3.500000000000001 -35.5 30.93782217350893
  endloop
 endfacet
 facet normal 0.4422886902190021 0 -0.896872741532688
  outer loop
   vertex 2.678784026555624 -32.5 30.53284327242099
   vertex 3.500000000000001 -35.5 30.93782217350893
   vertex 2.678784026555624 -35.5 30.53284327242099
  endloop
 endfacet
 facet normal 0.5555702330196015 0 -0.8314696123025457
  outer loop
   vertex 3.500000000000001 -32.5 30.93782217350893
   vertex 4.2613300030610395 -32.5 31.44652661796135
   vertex 4.2613300030610395 -35.5 31.44652661796135
  endloop
 endfacet
 facet normal 0.5555702330196015 0 -0.8314696123025457
  outer loop
   vertex 3.500000000000001 -32.5 30.93782217350893
   vertex 4.2613300030610395 -35.5 31.44652661796135
   vertex 3.500000000000001 -35.5 30.93782217350893
  endloop
 endfacet
 facet normal 0.6593458151000705 0 -0.7518398074789758
  outer loop
   vertex 4.2613300030610395 -32.5 31.44652661796135
   vertex 4.949747468305832 -32.5 32.05025253169417
   vertex 4.949747468305832 -35.5 32.05025253169417
  endloop
 endfacet
 facet normal 0.6593458151000705 0 -0.7518398074789758
  outer loop
   vertex 4.2613300030610395 -32.5 31.44652661796135
   vertex 4.949747468305832 -35.5 32.05025253169417
   vertex 4.2613300030610395 -35.5 31.44652661796135
  endloop
 endfacet
 facet normal 0.751839807478975 0 -0.6593458151000715
  outer loop
   vertex 4.949747468305832 -32.5 32.05025253169417
   vertex 5.553473382038645 -32.5 32.73866999693895
   vertex 5.553473382038645 -35.5 32.73866999693895
  endloop
 endfacet
 facet normal 0.751839807478975 0 -0.6593458151000715
  outer loop
   vertex 4.949747468305832 -32.5 32.05025253169417
   vertex 5.553473382038645 -35.5 32.73866999693895
   vertex 4.949747468305832 -35.5 32.05025253169417
  endloop
 endfacet
 facet normal 0.8314696123025465 0 -0.5555702330196005
  outer loop
   vertex 5.553473382038645 -32.5 32.73866999693895
   vertex 6.062177826491069 -32.5 33.5
   vertex 6.062177826491069 -35.5 33.5
  endloop
 endfacet
 facet normal 0.8314696123025465 0 -0.5555702330196005
  outer loop
   vertex 5.553473382038645 -32.5 32.73866999693895
   vertex 6.062177826491069 -35.5 33.5
   vertex 5.553473382038645 -35.5 32.73866999693895
  endloop
 endfacet
 facet normal 0.8968727415326878 0 -0.4422886902190022
  outer loop
   vertex 6.062177826491069 -32.5 33.5
   vertex 6.467156727579008 -32.5 34.321215973444374
   vertex 6.467156727579008 -35.5 34.321215973444374
  endloop
 endfacet
 facet normal 0.8968727415326878 0 -0.4422886902190022
  outer loop
   vertex 6.062177826491069 -32.5 33.5
   vertex 6.467156727579008 -35.5 34.321215973444374
   vertex 6.062177826491069 -35.5 33.5
  endloop
 endfacet
 facet normal 0.946930129495105 0 -0.3214394653031636
  outer loop
   vertex 6.467156727579008 -32.5 34.321215973444374
   vertex 6.761480784023477 -32.5 35.18826668428235
   vertex 6.761480784023477 -35.5 35.18826668428235
  endloop
 endfacet
 facet normal 0.946930129495105 0 -0.3214394653031636
  outer loop
   vertex 6.467156727579008 -32.5 34.321215973444374
   vertex 6.761480784023477 -35.5 35.18826668428235
   vertex 6.467156727579008 -35.5 34.321215973444374
  endloop
 endfacet
 facet normal 0.9807852804032303 0 -0.19509032201612828
  outer loop
   vertex 6.761480784023477 -32.5 35.18826668428235
   vertex 6.940114029616673 -32.5 36.08631665445964
   vertex 6.940114029616673 -35.5 36.08631665445964
  endloop
 endfacet
 facet normal 0.9807852804032303 0 -0.19509032201612828
  outer loop
   vertex 6.761480784023477 -32.5 35.18826668428235
   vertex 6.940114029616673 -35.5 36.08631665445964
   vertex 6.761480784023477 -35.5 35.18826668428235
  endloop
 endfacet
 facet normal 0.9978589232386035 0 -0.06540312923014277
  outer loop
   vertex 6.940114029616673 -32.5 36.08631665445964
   vertex 7 -32.5 37
   vertex 7 -35.5 37
  endloop
 endfacet
 facet normal 0.9978589232386035 0 -0.06540312923014277
  outer loop
   vertex 6.940114029616673 -32.5 36.08631665445964
   vertex 7 -35.5 37
   vertex 6.940114029616673 -35.5 36.08631665445964
  endloop
 endfacet
 facet normal 0 1 0
  outer loop
   vertex 6.940114029616673 -32.5 36.08631665445964
   vertex 6.761480784023477 -32.5 35.18826668428235
   vertex 6.467156727579008 -32.5 34.321215973444374
  endloop
 endfacet
 facet normal 0 1 0
  outer loop
   vertex 6.940114029616673 -32.5 36.08631665445964
   vertex 6.467156727579008 -32.5 34.321215973444374
   vertex 6.062177826491069 -32.5 33.5
  endloop
 endfacet
 facet normal 0 1 0
  outer loop
   vertex 6.940114029616673 -32.5 36.08631665445964
   vertex 6.062177826491069 -32.5 33.5
   vertex 5.553473382038645 -32.5 32.73866999693895
  endloop
 endfacet
 facet normal 0 1 0
  outer loop
   vertex 6.940114029616673 -32.5 36.08631665445964
   vertex 5.553473382038645 -32.5 32.73866999693895
   vertex 4.949747468305832 -32.5 32.05025253169417
  endloop
 endfacet
 facet normal 0 1 0
  outer loop
   vertex 6.940114029616673 -32.5 36.08631665445964
   vertex 4.949747468305832 -32.5 32.05025253169417
   vertex 4.2613300030610395 -32.5 31.44652661796135
  endloop
 endfacet
 facet normal 0 1 0
  outer loop
   vertex 6.940114029616673 -32.5 36.08631665445964
   vertex 4.2613300030610395 -32.5 31.44652661796135
   vertex 3.500000000000001 -32.5 30.93782217350893
  endloop
 endfacet
 facet normal 0 1 0
  outer loop
   vertex 6.940114029616673 -32.5 36.08631665445964
   vertex 3.500000000000001 -32.5 30.93782217350893
   vertex 2.678784026555624 -32.5 30.53284327242099
  endloop
 endfacet
 facet normal 0 1 0
  outer loop
   vertex 6.940114029616673 -32.5 36.08631665445964
   vertex 2.678784026555624 -32.5 30.53284327242099
   vertex 1.811733315717642 -32.5 30.23851921597652
  endloop
 endfacet
 facet normal 0 1 0
  outer loop
   vertex 6.940114029616673 -32.5 36.08631665445964
   vertex 1.811733315717642 -32.5 30.23851921597652
   vertex 0.9136833455403589 -32.5 30.059885970383327
  endloop
 endfacet
 facet normal 0 1 0
  outer loop
   vertex 6.940114029616673 -32.5 36.08631665445964
   vertex 0.9136833455403589 -32.5 30.059885970383327
   vertex -1.2858791391047208e-15 -32.5 30
  endloop
 endfacet
 facet normal 0 1 0
  outer loop
   vertex 6.940114029616673 -32.5 36.08631665445964
   vertex -1.2858791391047208e-15 -32.5 30
   vertex -0.9136833455403615 -32.5 30.059885970383327
  endloop
 endfacet
 facet normal 0 1 0
  outer loop
   vertex 6.940114029616673 -32.5 36.08631665445964
   vertex -0.9136833455403615 -32.5 30.059885970383327
   vertex -1.8117333157176443 -32.5 30.238519215976524
  endloop
 endfacet
 facet normal 0 1 0
  outer loop
   vertex 6.940114029616673 -32.5 36.08631665445964
   vertex -1.8117333157176443 -32.5 30.238519215976524
   vertex -2.6787840265556264 -32.5 30.53284327242099
  endloop
 endfacet
 facet normal 0 1 0
  outer loop
   vertex 6.940114029616673 -32.5 36.08631665445964
   vertex -2.6787840265556264 -32.5 30.53284327242099
   vertex -3.500000000000003 -32.5 30.93782217350893
  endloop
 endfacet
 facet normal 0 1 0
  outer loop
   vertex 6.940114029616673 -32.5 36.08631665445964
   vertex -3.500000000000003 -32.5 30.93782217350893
   vertex -4.261330003061046 -32.5 31.446526617961354
  endloop
 endfacet
 facet normal 0 1 0
  outer loop
   vertex 6.940114029616673 -32.5 36.08631665445964
   vertex -4.261330003061046 -32.5 31.446526617961354
   vertex -4.949747468305835 -32.5 32.05025253169417
  endloop
 endfacet
 facet normal 0 1 0
  outer loop
   vertex 6.940114029616673 -32.5 36.08631665445964
   vertex -4.949747468305835 -32.5 32.05025253169417
   vertex -5.553473382038646 -32.5 32.73866999693895
  endloop
 endfacet
 facet normal 0 1 0
  outer loop
   vertex 6.940114029616673 -32.5 36.08631665445964
   vertex -5.553473382038646 -32.5 32.73866999693895
   vertex -6.062177826491071 -32.5 33.5
  endloop
 endfacet
 facet normal 0 1 0
  outer loop
   vertex 6.940114029616673 -32.5 36.08631665445964
   vertex -6.062177826491071 -32.5 33.5
   vertex -6.467156727579008 -32.5 34.321215973444374
  endloop
 endfacet
 facet normal 0 1 0
  outer loop
   vertex 6.940114029616673 -32.5 36.08631665445964
   vertex -6.467156727579008 -32.5 34.321215973444374
   vertex -6.761480784023478 -32.5 35.188266684282354
  endloop
 endfacet
 facet normal 0 1 0
  outer loop
   vertex 6.940114029616673 -32.5 36.08631665445964
   vertex -6.761480784023478 -32.5 35.188266684282354
   vertex -6.940114029616673 -32.5 36.08631665445964
  endloop
 endfacet
 facet normal 0 1 0
  outer loop
   vertex 6.940114029616673 -32.5 36.08631665445964
   vertex -6.940114029616673 -32.5 36.08631665445964
   vertex -7 -32.5 37
  endloop
 endfacet
 facet normal 0 1 0
  outer loop
   vertex 6.940114029616673 -32.5 36.08631665445964
   vertex -7 -32.5 37
   vertex -6.940114029616673 -32.5 37.91368334554036
  endloop
 endfacet
 facet normal 0 1 0
  outer loop
   vertex 6.940114029616673 -32.5 36.08631665445964
   vertex -6.940114029616673 -32.5 37.91368334554036
   vertex -6.761480784023478 -32.5 38.811733315717646
  endloop
 endfacet
 facet normal 0 1 0
  outer loop
   vertex 6.940114029616673 -32.5 36.08631665445964
   vertex -6.761480784023478 -32.5 38.811733315717646
   vertex -6.467156727579007 -32.5 39.67878402655563
  endloop
 endfacet
 facet normal 0 1 0
  outer loop
   vertex 6.940114029616673 -32.5 36.08631665445964
   vertex -6.467156727579007 -32.5 39.67878402655563
   vertex -6.062177826491071 -32.5 40.5
  endloop
 endfacet
 facet normal 0 1 0
  outer loop
   vertex 6.940114029616673 -32.5 36.08631665445964
   vertex -6.062177826491071 -32.5 40.5
   vertex -5.5534733820386455 -32.5 41.26133000306105
  endloop
 endfacet
 facet normal 0 1 0
  outer loop
   vertex 6.940114029616673 -32.5 36.08631665445964
   vertex -5.5534733820386455 -32.5 41.26133000306105
   vertex -4.949747468305832 -32.5 41.94974746830583
  endloop
 endfacet
 facet normal 0 1 0
  outer loop
   vertex 6.940114029616673 -32.5 36.08631665445964
   vertex -4.949747468305832 -32.5 41.94974746830583
   vertex -4.261330003061045 -32.5 42.553473382038646
  endloop
 endfacet
 facet normal 0 1 0
  outer loop
   vertex 6.940114029616673 -32.5 36.08631665445964
   vertex -4.261330003061045 -32.5 42.553473382038646
   vertex -3.4999999999999982 -32.5 43.06217782649107
  endloop
 endfacet
 facet normal 0 1 0
  outer loop
   vertex 6.940114029616673 -32.5 36.08631665445964
   vertex -3.4999999999999982 -32.5 43.06217782649107
   vertex -2.6787840265556264 -32.5 43.46715672757901
  endloop
 endfacet
 facet normal 0 1 0
  outer loop
   vertex 6.940114029616673 -32.5 36.08631665445964
   vertex -2.6787840265556264 -32.5 43.46715672757901
   vertex -1.8117333157176443 -32.5 43.761480784023476
  endloop
 endfacet
 facet normal 0 1 0
  outer loop
   vertex 6.940114029616673 -32.5 36.08631665445964
   vertex -1.8117333157176443 -32.5 43.761480784023476
   vertex -0.9136833455403612 -32.5 43.94011402961667
  endloop
 endfacet
 facet normal 0 1 0
  outer loop
   vertex 6.940114029616673 -32.5 36.08631665445964
   vertex -0.9136833455403612 -32.5 43.94011402961667
   vertex 4.286263797015736e-16 -32.5 44
  endloop
 endfacet
 facet normal 0 1 0
  outer loop
   vertex 6.940114029616673 -32.5 36.08631665445964
   vertex 4.286263797015736e-16 -32.5 44
   vertex 0.913683345540362 -32.5 43.94011402961667
  endloop
 endfacet
 facet normal 0 1 0
  outer loop
   vertex 6.940114029616673 -32.5 36.08631665445964
   vertex 0.913683345540362 -32.5 43.94011402961667
   vertex 1.8117333157176452 -32.5 43.761480784023476
  endloop
 endfacet
 facet normal 0 1 0
  outer loop
   vertex 6.940114029616673 -32.5 36.08631665445964
   vertex 1.8117333157176452 -32.5 43.761480784023476
   vertex 2.678784026555629 -32.5 43.46715672757901
  endloop
 endfacet
 facet normal 0 1 0
  outer loop
   vertex 6.940114029616673 -32.5 36.08631665445964
   vertex 2.678784026555629 -32.5 43.46715672757901
   vertex 3.500000000000001 -32.5 43.06217782649107
  endloop
 endfacet
 facet normal 0 1 0
  outer loop
   vertex 6.940114029616673 -32.5 36.08631665445964
   vertex 3.500000000000001 -32.5 43.06217782649107
   vertex 4.261330003061045 -32.5 42.553473382038646
  endloop
 endfacet
 facet normal 0 1 0
  outer loop
   vertex 6.940114029616673 -32.5 36.08631665445964
   vertex 4.261330003061045 -32.5 42.553473382038646
   vertex 4.949747468305833 -32.5 41.94974746830583
  endloop
 endfacet
 facet normal 0 1 0
  outer loop
   vertex 6.940114029616673 -32.5 36.08631665445964
   vertex 4.949747468305833 -32.5 41.94974746830583
   vertex 5.553473382038646 -32.5 41.26133000306105
  endloop
 endfacet
 facet normal 0 1 0
  outer loop
   vertex 6.940114029616673 -32.5 36.08631665445964
   vertex 5.553473382038646 -32.5 41.26133000306105
   vertex 6.062177826491071 -32.5 40.5
  endloop
 endfacet
 facet normal 0 1 0
  outer loop
   vertex 6.940114029616673 -32.5 36.08631665445964
   vertex 6.062177826491071 -32.5 40.5
   vertex 6.467156727579007 -32.5 39.678784026555626
  endloop
 endfacet
 facet normal 0 1 0
  outer loop
   vertex 6.940114029616673 -32.5 36.08631665445964
   vertex 6.467156727579007 -32.5 39.678784026555626
   vertex 6.761480784023478 -32.5 38.811733315717646
  endloop
 endfacet
 facet normal 0 1 0
  outer loop
   vertex 6.940114029616673 -32.5 36.08631665445964
   vertex 6.761480784023478 -32.5 38.811733315717646
   vertex 6.940114029616673 -32.5 37.91368334554036
  endloop
 endfacet
 facet normal 0 1 0
  outer loop
   vertex 6.940114029616673 -32.5 36.08631665445964
   vertex 6.940114029616673 -32.5 37.91368334554036
   vertex 7 -32.5 37
  endloop
 endfacet
 facet normal 0 -1 0
  outer loop
   vertex 7 -35.5 37
   vertex 6.940114029616673 -35.5 37.91368334554036
   vertex 6.761480784023478 -35.5 38.811733315717646
  endloop
 endfacet
 facet normal 0 -1 0
  outer loop
   vertex 7 -35.5 37
   vertex 6.761480784023478 -35.5 38.811733315717646
   vertex 6.467156727579007 -35.5 39.678784026555626
  endloop
 endfacet
 facet normal 0 -1 0
  outer loop
   vertex 7 -35.5 37
   vertex 6.467156727579007 -35.5 39.678784026555626
   vertex 6.062177826491071 -35.5 40.5
  endloop
 endfacet
 facet normal 0 -1 0
  outer loop
   vertex 7 -35.5 37
   vertex 6.062177826491071 -35.5 40.5
   vertex 5.553473382038646 -35.5 41.26133000306105
  endloop
 endfacet
 facet normal 0 -1 0
  outer loop
   vertex 7 -35.5 37
   vertex 5.553473382038646 -35.5 41.26133000306105
   vertex 4.949747468305833 -35.5 41.94974746830583
  endloop
 endfacet
 facet normal 0 -1 0
  outer loop
   vertex 7 -35.5 37
   vertex 4.949747468305833 -35.5 41.94974746830583
   vertex 4.261330003061045 -35.5 42.553473382038646
  endloop
 endfacet
 facet normal 0 -1 0
  outer loop
   vertex 7 -35.5 37
   vertex 4.261330003061045 -35.5 42.553473382038646
   vertex 3.500000000000001 -35.5 43.06217782649107
  endloop
 endfacet
 facet normal 0 -1 0
  outer loop
   vertex 7 -35.5 37
   vertex 3.500000000000001 -35.5 43.06217782649107
   vertex 2.678784026555629 -35.5 43.46715672757901
  endloop
 endfacet
 facet normal 0 -1 0
  outer loop
   vertex 7 -35.5 37
   vertex 2.678784026555629 -35.5 43.46715672757901
   vertex 1.8117333157176452 -35.5 43.761480784023476
  endloop
 endfacet
 facet normal 0 -1 0
  outer loop
   vertex 7 -35.5 37
   vertex 1.8117333157176452 -35.5 43.761480784023476
   vertex 0.913683345540362 -35.5 43.94011402961667
  endloop
 endfacet
 facet normal 0 -1 0
  outer loop
   vertex 7 -35.5 37
   vertex 0.913683345540362 -35.5 43.94011402961667
   vertex 4.286263797015736e-16 -35.5 44
  endloop
 endfacet
 facet normal 0 -1 0
  outer loop
   vertex 7 -35.5 37
   vertex 4.286263797015736e-16 -35.5 44
   vertex -0.9136833455403612 -35.5 43.94011402961667
  endloop
 endfacet
 facet normal 0 -1 0
  outer loop
   vertex 7 -35.5 37
   vertex -0.9136833455403612 -35.5 43.94011402961667
   vertex -1.8117333157176443 -35.5 43.761480784023476
  endloop
 endfacet
 facet normal 0 -1 0
  outer loop
   vertex 7 -35.5 37
   vertex -1.8117333157176443 -35.5 43.761480784023476
   vertex -2.6787840265556264 -35.5 43.46715672757901
  endloop
 endfacet
 facet normal 0 -1 0
  outer loop
   vertex 7 -35.5 37
   vertex -2.6787840265556264 -35.5 43.46715672757901
   vertex -3.4999999999999982 -35.5 43.06217782649107
  endloop
 endfacet
 facet normal 0 -1 0
  outer loop
   vertex 7 -35.5 37
   vertex -3.4999999999999982 -35.5 43.06217782649107
   vertex -4.261330003061045 -35.5 42.553473382038646
  endloop
 endfacet
 facet normal 0 -1 0
  outer loop
   vertex 7 -35.5 37
   vertex -4.261330003061045 -35.5 42.553473382038646
   vertex -4.949747468305832 -35.5 41.94974746830583
  endloop
 endfacet
 facet normal 0 -1 0
  outer loop
   vertex 7 -35.5 37
   vertex -4.949747468305832 -35.5 41.94974746830583
   vertex -5.5534733820386455 -35.5 41.26133000306105
  endloop
 endfacet
 facet normal 0 -1 0
  outer loop
   vertex 7 -35.5 37
   vertex -5.5534733820386455 -35.5 41.26133000306105
   vertex -6.062177826491071 -35.5 40.5
  endloop
 endfacet
 facet normal 0 -1 0
  outer loop
   vertex 7 -35.5 37
   vertex -6.062177826491071 -35.5 40.5
   vertex -6.467156727579007 -35.5 39.67878402655563
  endloop
 endfacet
 facet normal 0 -1 0
  outer loop
   vertex 7 -35.5 37
   vertex -6.467156727579007 -35.5 39.67878402655563
   vertex -6.761480784023478 -35.5 38.811733315717646
  endloop
 endfacet
 facet normal 0 -1 0
  outer loop
   vertex 7 -35.5 37
   vertex -6.761480784023478 -35.5 38.811733315717646
   vertex -6.940114029616673 -35.5 37.91368334554036
  endloop
 endfacet
 facet normal 0 -1 0
  outer loop
   vertex 7 -35.5 37
   vertex -6.940114029616673 -35.5 37.91368334554036
   vertex -7 -35.5 37
  endloop
 endfacet
 facet normal 0 -1 0
  outer loop
   vertex 7 -35.5 37
   vertex -7 -35.5 37
   vertex -6.940114029616673 -35.5 36.08631665445964
  endloop
 endfacet
 facet normal 0 -1 0
  outer loop
   vertex 7 -35.5 37
   vertex -6.940114029616673 -35.5 36.08631665445964
   vertex -6.761480784023478 -35.5 35.188266684282354
  endloop
 endfacet
 facet normal 0 -1 0
  outer loop
   vertex 7 -35.5 37
   vertex -6.761480784023478 -35.5 35.188266684282354
   vertex -6.467156727579008 -35.5 34.321215973444374
  endloop
 endfacet
 facet normal 0 -1 0
  outer loop
   vertex 7 -35.5 37
   vertex -6.467156727579008 -35.5 34.321215973444374
   vertex -6.062177826491071 -35.5 33.5
  endloop
 endfacet
 facet normal 0 -1 0
  outer loop
   vertex 7 -35.5 37
   vertex -6.062177826491071 -35.5 33.5
   vertex -5.553473382038646 -35.5 32.73866999693895
  endloop
 endfacet
 facet normal 0 -1 0
  outer loop
   vertex 7 -35.5 37
   vertex -5.553473382038646 -35.5 32.73866999693895
   vertex -4.949747468305835 -35.5 32.05025253169417
  endloop
 endfacet
 facet normal 0 -1 0
  outer loop
   vertex 7 -35.5 37
   vertex -4.949747468305835 -35.5 32.05025253169417
   vertex -4.261330003061046 -35.5 31.446526617961354
  endloop
 endfacet
 facet normal 0 -1 0
  outer loop
   vertex 7 -35.5 37
   vertex -4.261330003061046 -35.5 31.446526617961354
   vertex -3.500000000000003 -35.5 30.93782217350893
  endloop
 endfacet
 facet normal 0 -1 0
  outer loop
   vertex 7 -35.5 37
   vertex -3.500000000000003 -35.5 30.93782217350893
   vertex -2.6787840265556264 -35.5 30.53284327242099
  endloop
 endfacet
 facet normal 0 -1 0
  outer loop
   vertex 7 -35.5 37
   vertex -2.6787840265556264 -35.5 30.53284327242099
   vertex -1.8117333157176443 -35.5 30.238519215976524
  endloop
 endfacet
 facet normal 0 -1 0
  outer loop
   vertex 7 -35.5 37
   vertex -1.8117333157176443 -35.5 30.238519215976524
   vertex -0.9136833455403615 -35.5 30.059885970383327
  endloop
 endfacet
 facet normal 0 -1 0
  outer loop
   vertex 7 -35.5 37
   vertex -0.9136833455403615 -35.5 30.059885970383327
   vertex -1.2858791391047208e-15 -35.5 30
  endloop
 endfacet
 facet normal 0 -1 0
  outer loop
   vertex 7 -35.5 37
   vertex -1.2858791391047208e-15 -35.5 30
   vertex 0.9136833455403589 -35.5 30.059885970383327
  endloop
 endfacet
 facet normal 0 -1 0
  outer loop
   vertex 7 -35.5 37
   vertex 0.9136833455403589 -35.5 30.059885970383327
   vertex 1.811733315717642 -35.5 30.23851921597652
  endloop
 endfacet
 facet normal 0 -1 0
  outer loop
   vertex 7 -35.5 37
   vertex 1.811733315717642 -35.5 30.23851921597652
   vertex 2.678784026555624 -35.5 30.53284327242099
  endloop
 endfacet
 facet normal 0 -1 0
  outer loop
   vertex 7 -35.5 37
   vertex 2.678784026555624 -35.5 30.53284327242099
   vertex 3.500000000000001 -35.5 30.93782217350893
  endloop
 endfacet
 facet normal 0 -1 0
  outer loop
   vertex 7 -35.5 37
   vertex 3.500000000000001 -35.5 30.93782217350893
   vertex 4.2613300030610395 -35.5 31.44652661796135
  endloop
 endfacet
 facet normal 0 -1 0
  outer loop
   vertex 7 -35.5 37
   vertex 4.2613300030610395 -35.5 31.44652661796135
   vertex 4.949747468305832 -35.5 32.05025253169417
  endloop
 endfacet
 facet normal 0 -1 0
  outer loop
   vertex 7 -35.5 37
   vertex 4.949747468305832 -35.5 32.05025253169417
   vertex 5.553473382038645 -35.5 32.73866999693895
  endloop
 endfacet
 facet normal 0 -1 0
  outer loop
   vertex 7 -35.5 37
   vertex 5.553473382038645 -35.5 32.73866999693895
   vertex 6.062177826491069 -35.5 33.5
  endloop
 endfacet
 facet normal 0 -1 0
  outer loop
   vertex 7 -35.5 37
   vertex 6.062177826491069 -35.5 33.5
   vertex 6.467156727579008 -35.5 34.321215973444374
  endloop
 endfacet
 facet normal 0 -1 0
  outer loop
   vertex 7 -35.5 37
   vertex 6.467156727579008 -35.5 34.321215973444374
   vertex 6.761480784023477 -35.5 35.18826668428235
  endloop
 endfacet
 facet normal 0 -1 0
  outer loop
   vertex 7 -35.5 37
   vertex 6.761480784023477 -35.5 35.18826668428235
   vertex 6.940114029616673 -35.5 36.08631665445964
  endloop
 endfacet
 facet normal 0 0 1
  outer loop
   vertex -6 29 24.5
   vertex 6 29 24.5
   vertex 6 33 24.5
  endloop
 endfacet
 facet normal 0 0 1
  outer loop
   vertex -6 29 24.5
   vertex 6 33 24.5
   vertex -6 33 24.5
  endloop
 endfacet
 facet normal 0 0 -1
  outer loop
   vertex -6 29 31.5
   vertex -6 33 31.5
   vertex 6 33 31.5
  endloop
 endfacet
 facet normal 0 0 -1
  outer loop
   vertex -6 29 31.5
   vertex 6 33 31.5
   vertex 6 29 31.5
  endloop
 endfacet
 facet normal 0 1 0
  outer loop
   vertex -6 29 24.5
   vertex -6 29 31.5
   vertex 6 29 31.5
  endloop
 endfacet
 facet normal 0 1 0
  outer loop
   vertex -6 29 24.5
   vertex 6 29 31.5
   vertex 6 29 24.5
  endloop
 endfacet
 facet normal -1 0 0
  outer loop
   vertex 6 29 24.5
   vertex 6 29 31.5
   vertex 6 33 31.5
  endloop
 endfacet
 facet normal -1 0 0
  outer loop
   vertex 6 29 24.5
   vertex 6 33 31.5
   vertex 6 33 24.5
  endloop
 endfacet
 facet normal 0 -1 0
  outer loop
   vertex 6 33 24.5
   vertex 6 33 31.5
   vertex -6 33 31.5
  endloop
 endfacet
 facet normal 0 -1 0
  outer loop
   vertex 6 33 24.5
   vertex -6 33 31.5
   vertex -6 33 24.5
  endloop
 endfacet
 facet normal 1 0 0
  outer loop
   vertex -6 33 24.5
   vertex -6 33 31.5
   vertex -6 29 31.5
  endloop
 endfacet
 facet normal 1 0 0
  outer loop
   vertex -6 33 24.5
   vertex -6 29 31.5
   vertex -6 29 24.5
  endloop
 endfacet
 facet normal 0 0 1
  outer loop
   vertex -20.5 -12 47
   vertex -15.5 -12 47
   vertex -15.5 12 47
  endloop
 endfacet
 facet normal 0 0 1
  outer loop
   vertex -20.5 -12 47
   vertex -15.5 12 47
   vertex -20.5 12 47
  endloop
 endfacet
 facet normal 0 0 -1
  outer loop
   vertex -20.5 -12 49
   vertex -20.5 12 49
   vertex -15.5 12 49
  endloop
 endfacet
 facet normal 0 0 -1
  outer loop
   vertex -20.5 -12 49
   vertex -15.5 12 49
   vertex -15.5 -12 49
  endloop
 endfacet
 facet normal 0 1 0
  outer loop
   vertex -20.5 -12 47
   vertex -20.5 -12 49
   vertex -15.5 -12 49
  endloop
 endfacet
 facet normal 0 1 0
  outer loop
   vertex -20.5 -12 47
   vertex -15.5 -12 49
   vertex -15.5 -12 47
  endloop
 endfacet
 facet normal -1 0 0
  outer loop
   vertex -15.5 -12 47
   vertex -15.5 -12 49
   vertex -15.5 12 49
  endloop
 endfacet
 facet normal -1 0 0
  outer loop
   vertex -15.5 -12 47
   vertex -15.5 12 49
   vertex -15.5 12 47
  endloop
 endfacet
 facet normal 0 -1 0
  outer loop
   vertex -15.5 12 47
   vertex -15.5 12 49
   vertex -20.5 12 49
  endloop
 endfacet
 facet normal 0 -1 0
  outer loop
   vertex -15.5 12 47
   vertex -20.5 12 49
   vertex -20.5 12 47
  endloop
 endfacet
 facet normal 1 0 0
  outer loop
   vertex -20.5 12 47
   vertex -20.5 12 49
   vertex -20.5 -12 49
  endloop
 endfacet
 facet normal 1 0 0
  outer loop
   vertex -20.5 12 47
   vertex -20.5 -12 49
   vertex -20.5 -12 47
  endloop
 endfacet
 facet normal 0 0 1
  outer loop
   vertex -11.5 -12 47
   vertex -6.5 -12 47
   vertex -6.5 12 47
  endloop
 endfacet
 facet normal 0 0 1
  outer loop
   vertex -11.5 -12 47
   vertex -6.5 12 47
   vertex -11.5 12 47
  endloop
 endfacet
 facet normal 0 0 -1
  outer loop
   vertex -11.5 -12 49
   vertex -11.5 12 49
   vertex -6.5 12 49
  endloop
 endfacet
 facet normal 0 0 -1
  outer loop
   vertex -11.5 -12 49
   vertex -6.5 12 49
   vertex -6.5 -12 49
  endloop
 endfacet
 facet normal 0 1 0
  outer loop
   vertex -11.5 -12 47
   vertex -11.5 -12 49
   vertex -6.5 -12 49
  endloop
 endfacet
 facet normal 0 1 0
  outer loop
   vertex -11.5 -12 47
   vertex -6.5 -12 49
   vertex -6.5 -12 47
  endloop
 endfacet
 facet normal -1 0 0
  outer loop
   vertex -6.5 -12 47
   vertex -6.5 -12 49
   vertex -6.5 12 49
  endloop
 endfacet
 facet normal -1 0 0
  outer loop
   vertex -6.5 -12 47
   vertex -6.5 12 49
   vertex -6.5 12 47
  endloop
 endfacet
 facet normal 0 -1 0
  outer loop
   vertex -6.5 12 47
   vertex -6.5 12 49
   vertex -11.5 12 49
  endloop
 endfacet
 facet normal 0 -1 0
  outer loop
   vertex -6.5 12 47
   vertex -11.5 12 49
   vertex -11.5 12 47
  endloop
 endfacet
 facet normal 1 0 0
  outer loop
   vertex -11.5 12 47
   vertex -11.5 12 49
   vertex -11.5 -12 49
  endloop
 endfacet
 facet normal 1 0 0
  outer loop
   vertex -11.5 12 47
   vertex -11.5 -12 49
   vertex -11.5 -12 47
  endloop
 endfacet
 facet normal 0 0 1
  outer loop
   vertex -2.5 -12 47
   vertex 2.5 -12 47
   vertex 2.5 12 47
  endloop
 endfacet
 facet normal 0 0 1
  outer loop
   vertex -2.5 -12 47
   vertex 2.5 12 47
   vertex -2.5 12 47
  endloop
 endfacet
 facet normal 0 0 -1
  outer loop
   vertex -2.5 -12 49
   vertex -2.5 12 49
   vertex 2.5 12 49
  endloop
 endfacet
 facet normal 0 0 -1
  outer loop
   vertex -2.5 -12 49
   vertex 2.5 12 49
   vertex 2.5 -12 49
  endloop
 endfacet
 facet normal 0 1 0
  outer loop
   vertex -2.5 -12 47
   vertex -2.5 -12 49
   vertex 2.5 -12 49
  endloop
 endfacet
 facet normal 0 1 0
  outer loop
   vertex -2.5 -12 47
   vertex 2.5 -12 49
   vertex 2.5 -12 47
  endloop
 endfacet
 facet normal -1 0 0
  outer loop
   vertex 2.5 -12 47
   vertex 2.5 -12 49
   vertex 2.5 12 49
  endloop
 endfacet
 facet normal -1 0 0
  outer loop
   vertex 2.5 -12 47
   vertex 2.5 12 49
   vertex 2.5 12 47
  endloop
 endfacet
 facet normal 0 -1 0
  outer loop
   vertex 2.5 12 47
   vertex 2.5 12 49
   vertex -2.5 12 49
  endloop
 endfacet
 facet normal 0 -1 0
  outer loop
   vertex 2.5 12 47
   vertex -2.5 12 49
   vertex -2.5 12 47
  endloop
 endfacet
 facet normal 1 0 0
  outer loop
   vertex -2.5 12 47
   vertex -2.5 12 49
   vertex -2.5 -12 49
  endloop
 endfacet
 facet normal 1 0 0
  outer loop
   vertex -2.5 12 47
   vertex -2.5 -12 49
   vertex -2.5 -12 47
  endloop
 endfacet
 facet normal 0 0 1
  outer loop
   vertex 6.5 -12 47
   vertex 11.5 -12 47
   vertex 11.5 12 47
  endloop
 endfacet
 facet normal 0 0 1
  outer loop
   vertex 6.5 -12 47
   vertex 11.5 12 47
   vertex 6.5 12 47
  endloop
 endfacet
 facet normal 0 0 -1
  outer loop
   vertex 6.5 -12 49
   vertex 6.5 12 49
   vertex 11.5 12 49
  endloop
 endfacet
 facet normal 0 0 -1
  outer loop
   vertex 6.5 -12 49
   vertex 11.5 12 49
   vertex 11.5 -12 49
  endloop
 endfacet
 facet normal 0 1 0
  outer loop
   vertex 6.5 -12 47
   vertex 6.5 -12 49
   vertex 11.5 -12 49
  endloop
 endfacet
 facet normal 0 1 0
  outer loop
   vertex 6.5 -12 47
   vertex 11.5 -12 49
   vertex 11.5 -12 47
  endloop
 endfacet
 facet normal -1 0 0
  outer loop
   vertex 11.5 -12 47
   vertex 11.5 -12 49
   vertex 11.5 12 49
  endloop
 endfacet
 facet normal -1 0 0
  outer loop
   vertex 11.5 -12 47
   vertex 11.5 12 49
   vertex 11.5 12 47
  endloop
 endfacet
 facet normal 0 -1 0
  outer loop
   vertex 11.5 12 47
   vertex 11.5 12 49
   vertex 6.5 12 49
  endloop
 endfacet
 facet normal 0 -1 0
  outer loop
   vertex 11.5 12 47
   vertex 6.5 12 49
   vertex 6.5 12 47
  endloop
 endfacet
 facet normal 1 0 0
  outer loop
   vertex 6.5 12 47
   vertex 6.5 12 49
   vertex 6.5 -12 49
  endloop
 endfacet
 facet normal 1 0 0
  outer loop
   vertex 6.5 12 47
   vertex 6.5 -12 49
   vertex 6.5 -12 47
  endloop
 endfacet
 facet normal 0 0 1
  outer loop
   vertex 15.5 -12 47
   vertex 20.5 -12 47
   vertex 20.5 12 47
  endloop
 endfacet
 facet normal 0 0 1
  outer loop
   vertex 15.5 -12 47
   vertex 20.5 12 47
   vertex 15.5 12 47
  endloop
 endfacet
 facet normal 0 0 -1
  outer loop
   vertex 15.5 -12 49
   vertex 15.5 12 49
   vertex 20.5 12 49
  endloop
 endfacet
 facet normal 0 0 -1
  outer loop
   vertex 15.5 -12 49
   vertex 20.5 12 49
   vertex 20.5 -12 49
  endloop
 endfacet
 facet normal 0 1 0
  outer loop
   vertex 15.5 -12 47
   vertex 15.5 -12 49
   vertex 20.5 -12 49
  endloop
 endfacet
 facet normal 0 1 0
  outer loop
   vertex 15.5 -12 47
   vertex 20.5 -12 49
   vertex 20.5 -12 47
  endloop
 endfacet
 facet normal -1 0 0
  outer loop
   vertex 20.5 -12 47
   vertex 20.5 -12 49
   vertex 20.5 12 49
  endloop
 endfacet
 facet normal -1 0 0
  outer loop
   vertex 20.5 -12 47
   vertex 20.5 12 49
   vertex 20.5 12 47
  endloop
 endfacet
 facet normal 0 -1 0
  outer loop
   vertex 20.5 12 47
   vertex 20.5 12 49
   vertex 15.5 12 49
  endloop
 endfacet
 facet normal 0 -1 0
  outer loop
   vertex 20.5 12 47
   vertex 15.5 12 49
   vertex 15.5 12 47
  endloop
 endfacet
 facet normal 1 0 0
  outer loop
   vertex 15.5 12 47
   vertex 15.5 12 49
   vertex 15.5 -12 49
  endloop
 endfacet
 facet normal 1 0 0
  outer loop
   vertex 15.5 12 47
   vertex 15.5 -12 49
   vertex 15.5 -12 47
  endloop
 endfacet
 facet normal 0 0 1
  outer loop
   vertex -35 -25 22
   vertex 35 -25 22
   vertex 35 25 22
  endloop
 endfacet
 facet normal 0 0 1
  outer loop
   vertex -35 -25 22
   vertex 35 25 22
   vertex -35 25 22
  endloop
 endfacet
 facet normal 0 0 -1
  outer loop
   vertex -35 -25 23.6
   vertex -35 25 23.6
   vertex 35 25 23.6
  endloop
 endfacet
 facet normal 0 0 -1
  outer loop
   vertex -35 -25 23.6
   vertex 35 25 23.6
   vertex 35 -25 23.6
  endloop
 endfacet
 facet normal 0 1 0
  outer loop
   vertex -35 -25 22
   vertex -35 -25 23.6
   vertex 35 -25 23.6
  endloop
 endfacet
 facet normal 0 1 0
  outer loop
   vertex -35 -25 22
   vertex 35 -25 23.6
   vertex 35 -25 22
  endloop
 endfacet
 facet normal -1 0 0
  outer loop
   vertex 35 -25 22
   vertex 35 -25 23.6
   vertex 35 25 23.6
  endloop
 endfacet
 facet normal -1 0 0
  outer loop
   vertex 35 -25 22
   vertex 35 25 23.6
   vertex 35 25 22
  endloop
 endfacet
 facet normal 0 -1 0
  outer loop
   vertex 35 25 22
   vertex 35 25 23.6
   vertex -35 25 23.6
  endloop
 endfacet
 facet normal 0 -1 0
  outer loop
   vertex 35 25 22
   vertex -35 25 23.6
   vertex -35 25 22
  endloop
 endfacet
 facet normal 1 0 0
  outer loop
   vertex -35 25 22
   vertex -35 25 23.6
   vertex -35 -25 23.6
  endloop
 endfacet
 facet normal 1 0 0
  outer loop
   vertex -35 25 22
   vertex -35 -25 23.6
   vertex -35 -25 22
  endloop
 endfacet
 facet normal 0 0 1
  outer loop
   vertex -41 -31 12
   vertex 41 -31 12
   vertex 41 31 12
  endloop
 endfacet
 facet normal 0 0 1
  outer loop
   vertex -41 -31 12
   vertex 41 31 12
   vertex -41 31 12
  endloop
 endfacet
 facet normal 0 0 -1
  outer loop
   vertex -41 -31 14
   vertex -41 31 14
   vertex 41 31 14
  endloop
 endfacet
 facet normal 0 0 -1
  outer loop
   vertex -41 -31 14
   vertex 41 31 14
   vertex 41 -31 14
  endloop
 endfacet
 facet normal 0 1 0
  outer loop
   vertex -41 -31 12
   vertex -41 -31 14
   vertex 41 -31 14
  endloop
 endfacet
 facet normal 0 1 0
  outer loop
   vertex -41 -31 12
   vertex 41 -31 14
   vertex 41 -31 12
  endloop
 endfacet
 facet normal -1 0 0
  outer loop
   vertex 41 -31 12
   vertex 41 -31 14
   vertex 41 31 14
  endloop
 endfacet
 facet normal -1 0 0
  outer loop
   vertex 41 -31 12
   vertex 41 31 14
   vertex 41 31 12
  endloop
 endfacet
 facet normal 0 -1 0
  outer loop
   vertex 41 31 12
   vertex 41 31 14
   vertex -41 31 14
  endloop
 endfacet
 facet normal 0 -1 0
  outer loop
   vertex 41 31 12
   vertex -41 31 14
   vertex -41 31 12
  endloop
 endfacet
 facet normal 1 0 0
  outer loop
   vertex -41 31 12
   vertex -41 31 14
   vertex -41 -31 14
  endloop
 endfacet
 facet normal 1 0 0
  outer loop
   vertex -41 31 12
   vertex -41 -31 14
   vertex -41 -31 12
  endloop
 endfacet
 facet normal 0 0 1
  outer loop
   vertex -31 -24 -8
   vertex 31 -24 -8
   vertex 31 24 -8
  endloop
 endfacet
 facet normal 0 0 1
  outer loop
   vertex -31 -24 -8
   vertex 31 24 -8
   vertex -31 24 -8
  endloop
 endfacet
 facet normal 0 0 -1
  outer loop
   vertex -31 -24 8
   vertex -31 24 8
   vertex 31 24 8
  endloop
 endfacet
 facet normal 0 0 -1
  outer loop
   vertex -31 -24 8
   vertex 31 24 8
   vertex 31 -24 8
  endloop
 endfacet
 facet normal 0 1 0
  outer loop
   vertex -31 -24 -8
   vertex -31 -24 8
   vertex 31 -24 8
  endloop
 endfacet
 facet normal 0 1 0
  outer loop
   vertex -31 -24 -8
   vertex 31 -24 8
   vertex 31 -24 -8
  endloop
 endfacet
 facet normal -1 0 0
  outer loop
   vertex 31 -24 -8
   vertex 31 -24 8
   vertex 31 24 8
  endloop
 endfacet
 facet normal -1 0 0
  outer loop
   vertex 31 -24 -8
   vertex 31 24 8
   vertex 31 24 -8
  endloop
 endfacet
 facet normal 0 -1 0
  outer loop
   vertex 31 24 -8
   vertex 31 24 8
   vertex -31 24 8
  endloop
 endfacet
 facet normal 0 -1 0
  outer loop
   vertex 31 24 -8
   vertex -31 24 8
   vertex -31 24 -8
  endloop
 endfacet
 facet normal 1 0 0
  outer loop
   vertex -31 24 -8
   vertex -31 24 8
   vertex -31 -24 8
  endloop
 endfacet
 facet normal 1 0 0
  outer loop
   vertex -31 24 -8
   vertex -31 -24 8
   vertex -31 -24 -8
  endloop
 endfacet
 facet normal 0 0 1
  outer loop
   vertex -12 -6.5 -4
   vertex 12 -6.5 -4
   vertex 12 6.5 -4
  endloop
 endfacet
 facet normal 0 0 1
  outer loop
   vertex -12 -6.5 -4
   vertex 12 6.5 -4
   vertex -12 6.5 -4
  endloop
 endfacet
 facet normal 0 0 -1
  outer loop
   vertex -12 -6.5 18
   vertex -12 6.5 18
   vertex 12 6.5 18
  endloop
 endfacet
 facet normal 0 0 -1
  outer loop
   vertex -12 -6.5 18
   vertex 12 6.5 18
   vertex 12 -6.5 18
  endloop
 endfacet
 facet normal 0 1 0
  outer loop
   vertex -12 -6.5 -4
   vertex -12 -6.5 18
   vertex 12 -6.5 18
  endloop
 endfacet
 facet normal 0 1 0
  outer loop
   vertex -12 -6.5 -4
   vertex 12 -6.5 18
   vertex 12 -6.5 -4
  endloop
 endfacet
 facet normal -1 0 0
  outer loop
   vertex 12 -6.5 -4
   vertex 12 -6.5 18
   vertex 12 6.5 18
  endloop
 endfacet
 facet normal -1 0 0
  outer loop
   vertex 12 -6.5 -4
   vertex 12 6.5 18
   vertex 12 6.5 -4
  endloop
 endfacet
 facet normal 0 -1 0
  outer loop
   vertex 12 6.5 -4
   vertex 12 6.5 18
   vertex -12 6.5 18
  endloop
 endfacet
 facet normal 0 -1 0
  outer loop
   vertex 12 6.5 -4
   vertex -12 6.5 18
   vertex -12 6.5 -4
  endloop
 endfacet
 facet normal 1 0 0
  outer loop
   vertex -12 6.5 -4
   vertex -12 6.5 18
   vertex -12 -6.5 18
  endloop
 endfacet
 facet normal 1 0 0
  outer loop
   vertex -12 6.5 -4
   vertex -12 -6.5 18
   vertex -12 -6.5 -4
  endloop
 endfacet
 facet normal 0.9978589232386035 0.0654031292301433 0
  outer loop
   vertex 4 0 8
   vertex 3.9657794454952415 0.5221047688802063 8
   vertex 3.9657794454952415 0.5221047688802063 16
  endloop
 endfacet
 facet normal 0.9978589232386035 0.0654031292301433 0
  outer loop
   vertex 4 0 8
   vertex 3.9657794454952415 0.5221047688802063 16
   vertex 4 0 16
  endloop
 endfacet
 facet normal 0.9807852804032305 0.19509032201612786 0
  outer loop
   vertex 3.9657794454952415 0.5221047688802063 8
   vertex 3.8637033051562732 1.035276180410083 8
   vertex 3.8637033051562732 1.035276180410083 16
  endloop
 endfacet
 facet normal 0.9807852804032305 0.19509032201612786 0
  outer loop
   vertex 3.9657794454952415 0.5221047688802063 8
   vertex 3.8637033051562732 1.035276180410083 16
   vertex 3.9657794454952415 0.5221047688802063 16
  endloop
 endfacet
 facet normal 0.9469301294951056 0.3214394653031618 0
  outer loop
   vertex 3.8637033051562732 1.035276180410083 8
   vertex 3.695518130045147 1.5307337294603591 8
   vertex 3.695518130045147 1.5307337294603591 16
  endloop
 endfacet
 facet normal 0.9469301294951056 0.3214394653031618 0
  outer loop
   vertex 3.8637033051562732 1.035276180410083 8
   vertex 3.695518130045147 1.5307337294603591 16
   vertex 3.8637033051562732 1.035276180410083 16
  endloop
 endfacet
 facet normal 0.8968727415326885 0.442288690219001 0
  outer loop
   vertex 3.695518130045147 1.5307337294603591 8
   vertex 3.464101615137755 1.9999999999999998 8
   vertex 3.464101615137755 1.9999999999999998 16
  endloop
 endfacet
 facet normal 0.8968727415326885 0.442288690219001 0
  outer loop
   vertex 3.695518130045147 1.5307337294603591 8
   vertex 3.464101615137755 1.9999999999999998 16
   vertex 3.695518130045147 1.5307337294603591 16
  endloop
 endfacet
 facet normal 0.8314696123025451 0.5555702330196023 0
  outer loop
   vertex 3.464101615137755 1.9999999999999998 8
   vertex 3.1734133611649407 2.4350457160348826 8
   vertex 3.1734133611649407 2.4350457160348826 16
  endloop
 endfacet
 facet normal 0.8314696123025451 0.5555702330196023 0
  outer loop
   vertex 3.464101615137755 1.9999999999999998 8
   vertex 3.1734133611649407 2.4350457160348826 16
   vertex 3.464101615137755 1.9999999999999998 16
  endloop
 endfacet
 facet normal 0.7518398074789774 0.659345815100069 0
  outer loop
   vertex 3.1734133611649407 2.4350457160348826 8
   vertex 2.8284271247461903 2.82842712474619 8
   vertex 2.8284271247461903 2.82842712474619 16
  endloop
 endfacet
 facet normal 0.7518398074789774 0.659345815100069 0
  outer loop
   vertex 3.1734133611649407 2.4350457160348826 8
   vertex 2.8284271247461903 2.82842712474619 16
   vertex 3.1734133611649407 2.4350457160348826 16
  endloop
 endfacet
 facet normal 0.6593458151000692 0.7518398074789774 0
  outer loop
   vertex 2.8284271247461903 2.82842712474619 8
   vertex 2.4350457160348826 3.1734133611649407 8
   vertex 2.4350457160348826 3.1734133611649407 16
  endloop
 endfacet
 facet normal 0.6593458151000692 0.7518398074789774 0
  outer loop
   vertex 2.8284271247461903 2.82842712474619 8
   vertex 2.4350457160348826 3.1734133611649407 16
   vertex 2.8284271247461903 2.82842712474619 16
  endloop
 endfacet
 facet normal 0.5555702330196024 0.8314696123025452 0
  outer loop
   vertex 2.4350457160348826 3.1734133611649407 8
   vertex 2.0000000000000004 3.4641016151377544 8
   vertex 2.0000000000000004 3.4641016151377544 16
  endloop
 endfacet
 facet normal 0.5555702330196024 0.8314696123025452 0
  outer loop
   vertex 2.4350457160348826 3.1734133611649407 8
   vertex 2.0000000000000004 3.4641016151377544 16
   vertex 2.4350457160348826 3.1734133611649407 16
  endloop
 endfacet
 facet normal 0.4422886902190013 0.8968727415326881 0
  outer loop
   vertex 2.0000000000000004 3.4641016151377544 8
   vertex 1.5307337294603593 3.695518130045147 8
   vertex 1.5307337294603593 3.695518130045147 16
  endloop
 endfacet
 facet normal 0.4422886902190013 0.8968727415326881 0
  outer loop
   vertex 2.0000000000000004 3.4641016151377544 8
   vertex 1.5307337294603593 3.695518130045147 16
   vertex 2.0000000000000004 3.4641016151377544 16
  endloop
 endfacet
 facet normal 0.32143946530316164 0.9469301294951056 0
  outer loop
   vertex 1.5307337294603593 3.695518130045147 8
   vertex 1.035276180410083 3.8637033051562732 8
   vertex 1.035276180410083 3.8637033051562732 16
  endloop
 endfacet
 facet normal 0.32143946530316164 0.9469301294951056 0
  outer loop
   vertex 1.5307337294603593 3.695518130045147 8
   vertex 1.035276180410083 3.8637033051562732 16
   vertex 1.5307337294603593 3.695518130045147 16
  endloop
 endfacet
 facet normal 0.19509032201612808 0.9807852804032304 0
  outer loop
   vertex 1.035276180410083 3.8637033051562732 8
   vertex 0.5221047688802068 3.9657794454952415 8
   vertex 0.5221047688802068 3.9657794454952415 16
  endloop
 endfacet
 facet normal 0.19509032201612808 0.9807852804032304 0
  outer loop
   vertex 1.035276180410083 3.8637033051562732 8
   vertex 0.5221047688802068 3.9657794454952415 16
   vertex 1.035276180410083 3.8637033051562732 16
  endloop
 endfacet
 facet normal 0.06540312923014326 0.9978589232386035 0
  outer loop
   vertex 0.5221047688802068 3.9657794454952415 8
   vertex 2.4492935982947064e-16 4 8
   vertex 2.4492935982947064e-16 4 16
  endloop
 endfacet
 facet normal 0.06540312923014326 0.9978589232386035 0
  outer loop
   vertex 0.5221047688802068 3.9657794454952415 8
   vertex 2.4492935982947064e-16 4 16
   vertex 0.5221047688802068 3.9657794454952415 16
  endloop
 endfacet
 facet normal -0.06540312923014326 0.9978589232386035 0
  outer loop
   vertex 2.4492935982947064e-16 4 8
   vertex -0.5221047688802064 3.9657794454952415 8
   vertex -0.5221047688802064 3.9657794454952415 16
  endloop
 endfacet
 facet normal -0.06540312923014326 0.9978589232386035 0
  outer loop
   vertex 2.4492935982947064e-16 4 8
   vertex -0.5221047688802064 3.9657794454952415 16
   vertex 2.4492935982947064e-16 4 16
  endloop
 endfacet
 facet normal -0.19509032201612808 0.9807852804032304 0
  outer loop
   vertex -0.5221047688802064 3.9657794454952415 8
   vertex -1.0352761804100825 3.8637033051562732 8
   vertex -1.0352761804100825 3.8637033051562732 16
  endloop
 endfacet
 facet normal -0.19509032201612808 0.9807852804032304 0
  outer loop
   vertex -0.5221047688802064 3.9657794454952415 8
   vertex -1.0352761804100825 3.8637033051562732 16
   vertex -0.5221047688802064 3.9657794454952415 16
  endloop
 endfacet
 facet normal -0.3214394653031614 0.9469301294951057 0
  outer loop
   vertex -1.0352761804100825 3.8637033051562732 8
   vertex -1.530733729460358 3.6955181300451474 8
   vertex -1.530733729460358 3.6955181300451474 16
  endloop
 endfacet
 facet normal -0.3214394653031614 0.9469301294951057 0
  outer loop
   vertex -1.0352761804100825 3.8637033051562732 8
   vertex -1.530733729460358 3.6955181300451474 16
   vertex -1.0352761804100825 3.8637033051562732 16
  endloop
 endfacet
 facet normal -0.4422886902190013 0.8968727415326881 0
  outer loop
   vertex -1.530733729460358 3.6955181300451474 8
   vertex -1.9999999999999991 3.464101615137755 8
   vertex -1.9999999999999991 3.464101615137755 16
  endloop
 endfacet
 facet normal -0.4422886902190013 0.8968727415326881 0
  outer loop
   vertex -1.530733729460358 3.6955181300451474 8
   vertex -1.9999999999999991 3.464101615137755 16
   vertex -1.530733729460358 3.6955181300451474 16
  endloop
 endfacet
 facet normal -0.5555702330196016 0.8314696123025456 0
  outer loop
   vertex -1.9999999999999991 3.464101615137755 8
   vertex -2.4350457160348826 3.1734133611649407 8
   vertex -2.4350457160348826 3.1734133611649407 16
  endloop
 endfacet
 facet normal -0.5555702330196016 0.8314696123025456 0
  outer loop
   vertex -1.9999999999999991 3.464101615137755 8
   vertex -2.4350457160348826 3.1734133611649407 16
   vertex -1.9999999999999991 3.464101615137755 16
  endloop
 endfacet
 facet normal -0.659345815100069 0.7518398074789774 0
  outer loop
   vertex -2.4350457160348826 3.1734133611649407 8
   vertex -2.82842712474619 2.8284271247461903 8
   vertex -2.82842712474619 2.8284271247461903 16
  endloop
 endfacet
 facet normal -0.659345815100069 0.7518398074789774 0
  outer loop
   vertex -2.4350457160348826 3.1734133611649407 8
   vertex -2.82842712474619 2.8284271247461903 16
   vertex -2.4350457160348826 3.1734133611649407 16
  endloop
 endfacet
 facet normal -0.7518398074789769 0.6593458151000694 0
  outer loop
   vertex -2.82842712474619 2.8284271247461903 8
   vertex -3.17341336116494 2.4350457160348835 8
   vertex -3.17341336116494 2.4350457160348835 16
  endloop
 endfacet
 facet normal -0.7518398074789769 0.6593458151000694 0
  outer loop
   vertex -2.82842712474619 2.8284271247461903 8
   vertex -3.17341336116494 2.4350457160348835 16
   vertex -2.82842712474619 2.8284271247461903 16
  endloop
 endfacet
 facet normal -0.8314696123025455 0.5555702330196022 0
  outer loop
   vertex -3.17341336116494 2.4350457160348835 8
   vertex -3.464101615137755 1.9999999999999998 8
   vertex -3.464101615137755 1.9999999999999998 16
  endloop
 endfacet
 facet normal -0.8314696123025455 0.5555702330196022 0
  outer loop
   vertex -3.17341336116494 2.4350457160348835 8
   vertex -3.464101615137755 1.9999999999999998 16
   vertex -3.17341336116494 2.4350457160348835 16
  endloop
 endfacet
 facet normal -0.8968727415326881 0.4422886902190013 0
  outer loop
   vertex -3.464101615137755 1.9999999999999998 8
   vertex -3.695518130045147 1.5307337294603596 8
   vertex -3.695518130045147 1.5307337294603596 16
  endloop
 endfacet
 facet normal -0.8968727415326881 0.4422886902190013 0
  outer loop
   vertex -3.464101615137755 1.9999999999999998 8
   vertex -3.695518130045147 1.5307337294603596 16
   vertex -3.464101615137755 1.9999999999999998 16
  endloop
 endfacet
 facet normal -0.9469301294951057 0.3214394653031614 0
  outer loop
   vertex -3.695518130045147 1.5307337294603596 8
   vertex -3.863703305156273 1.035276180410084 8
   vertex -3.863703305156273 1.035276180410084 16
  endloop
 endfacet
 facet normal -0.9469301294951057 0.3214394653031614 0
  outer loop
   vertex -3.695518130045147 1.5307337294603596 8
   vertex -3.863703305156273 1.035276180410084 16
   vertex -3.695518130045147 1.5307337294603596 16
  endloop
 endfacet
 facet normal -0.9807852804032302 0.1950903220161289 0
  outer loop
   vertex -3.863703305156273 1.035276180410084 8
   vertex -3.9657794454952415 0.522104768880208 8
   vertex -3.9657794454952415 0.522104768880208 16
  endloop
 endfacet
 facet normal -0.9807852804032302 0.1950903220161289 0
  outer loop
   vertex -3.863703305156273 1.035276180410084 8
   vertex -3.9657794454952415 0.522104768880208 16
   vertex -3.863703305156273 1.035276180410084 16
  endloop
 endfacet
 facet normal -0.9978589232386037 0.06540312923014316 0
  outer loop
   vertex -3.9657794454952415 0.522104768880208 8
   vertex -4 4.898587196589413e-16 8
   vertex -4 4.898587196589413e-16 16
  endloop
 endfacet
 facet normal -0.9978589232386037 0.06540312923014316 0
  outer loop
   vertex -3.9657794454952415 0.522104768880208 8
   vertex -4 4.898587196589413e-16 16
   vertex -3.9657794454952415 0.522104768880208 16
  endloop
 endfacet
 facet normal -0.9978589232386037 -0.06540312923014316 0
  outer loop
   vertex -4 4.898587196589413e-16 8
   vertex -3.9657794454952415 -0.5221047688802071 8
   vertex -3.9657794454952415 -0.5221047688802071 16
  endloop
 endfacet
 facet normal -0.9978589232386037 -0.06540312923014316 0
  outer loop
   vertex -4 4.898587196589413e-16 8
   vertex -3.9657794454952415 -0.5221047688802071 16
   vertex -4 4.898587196589413e-16 16
  endloop
 endfacet
 facet normal -0.9807852804032304 -0.19509032201612808 0
  outer loop
   vertex -3.9657794454952415 -0.5221047688802071 8
   vertex -3.8637033051562732 -1.0352761804100832 8
   vertex -3.8637033051562732 -1.0352761804100832 16
  endloop
 endfacet
 facet normal -0.9807852804032304 -0.19509032201612808 0
  outer loop
   vertex -3.9657794454952415 -0.5221047688802071 8
   vertex -3.8637033051562732 -1.0352761804100832 16
   vertex -3.9657794454952415 -0.5221047688802071 16
  endloop
 endfacet
 facet normal -0.9469301294951057 -0.3214394653031614 0
  outer loop
   vertex -3.8637033051562732 -1.0352761804100832 8
   vertex -3.6955181300451474 -1.5307337294603587 8
   vertex -3.6955181300451474 -1.5307337294603587 16
  endloop
 endfacet
 facet normal -0.9469301294951057 -0.3214394653031614 0
  outer loop
   vertex -3.8637033051562732 -1.0352761804100832 8
   vertex -3.6955181300451474 -1.5307337294603587 16
   vertex -3.8637033051562732 -1.0352761804100832 16
  endloop
 endfacet
 facet normal -0.8968727415326881 -0.4422886902190013 0
  outer loop
   vertex -3.6955181300451474 -1.5307337294603587 8
   vertex -3.4641016151377553 -1.999999999999999 8
   vertex -3.4641016151377553 -1.999999999999999 16
  endloop
 endfacet
 facet normal -0.8968727415326881 -0.4422886902190013 0
  outer loop
   vertex -3.6955181300451474 -1.5307337294603587 8
   vertex -3.4641016151377553 -1.999999999999999 16
   vertex -3.6955181300451474 -1.5307337294603587 16
  endloop
 endfacet
 facet normal -0.8314696123025455 -0.5555702330196022 0
  outer loop
   vertex -3.4641016151377553 -1.999999999999999 8
   vertex -3.1734133611649407 -2.4350457160348826 8
   vertex -3.1734133611649407 -2.4350457160348826 16
  endloop
 endfacet
 facet normal -0.8314696123025455 -0.5555702330196022 0
  outer loop
   vertex -3.4641016151377553 -1.999999999999999 8
   vertex -3.1734133611649407 -2.4350457160348826 16
   vertex -3.4641016151377553 -1.999999999999999 16
  endloop
 endfacet
 facet normal -0.7518398074789775 -0.6593458151000688 0
  outer loop
   vertex -3.1734133611649407 -2.4350457160348826 8
   vertex -2.8284271247461916 -2.8284271247461885 8
   vertex -2.8284271247461916 -2.8284271247461885 16
  endloop
 endfacet
 facet normal -0.7518398074789775 -0.6593458151000688 0
  outer loop
   vertex -3.1734133611649407 -2.4350457160348826 8
   vertex -2.8284271247461916 -2.8284271247461885 16
   vertex -3.1734133611649407 -2.4350457160348826 16
  endloop
 endfacet
 facet normal -0.659345815100069 -0.7518398074789772 0
  outer loop
   vertex -2.8284271247461916 -2.8284271247461885 8
   vertex -2.4350457160348835 -3.1734133611649398 8
   vertex -2.4350457160348835 -3.1734133611649398 16
  endloop
 endfacet
 facet normal -0.659345815100069 -0.7518398074789772 0
  outer loop
   vertex -2.8284271247461916 -2.8284271247461885 8
   vertex -2.4350457160348835 -3.1734133611649398 16
   vertex -2.8284271247461916 -2.8284271247461885 16
  endloop
 endfacet
 facet normal -0.5555702330196032 -0.8314696123025445 0
  outer loop
   vertex -2.4350457160348835 -3.1734133611649398 8
   vertex -2.0000000000000018 -3.464101615137754 8
   vertex -2.0000000000000018 -3.464101615137754 16
  endloop
 endfacet
 facet normal -0.5555702330196032 -0.8314696123025445 0
  outer loop
   vertex -2.4350457160348835 -3.1734133611649398 8
   vertex -2.0000000000000018 -3.464101615137754 16
   vertex -2.4350457160348835 -3.1734133611649398 16
  endloop
 endfacet
 facet normal -0.44228869021900064 -0.8968727415326885 0
  outer loop
   vertex -2.0000000000000018 -3.464101615137754 8
   vertex -1.530733729460358 -3.6955181300451474 8
   vertex -1.530733729460358 -3.6955181300451474 16
  endloop
 endfacet
 facet normal -0.44228869021900064 -0.8968727415326885 0
  outer loop
   vertex -2.0000000000000018 -3.464101615137754 8
   vertex -1.530733729460358 -3.6955181300451474 16
   vertex -2.0000000000000018 -3.464101615137754 16
  endloop
 endfacet
 facet normal -0.3214394653031614 -0.9469301294951057 0
  outer loop
   vertex -1.530733729460358 -3.6955181300451474 8
   vertex -1.0352761804100825 -3.8637033051562732 8
   vertex -1.0352761804100825 -3.8637033051562732 16
  endloop
 endfacet
 facet normal -0.3214394653031614 -0.9469301294951057 0
  outer loop
   vertex -1.530733729460358 -3.6955181300451474 8
   vertex -1.0352761804100825 -3.8637033051562732 16
   vertex -1.530733729460358 -3.6955181300451474 16
  endloop
 endfacet
 facet normal -0.1950903220161281 -0.9807852804032304 0
  outer loop
   vertex -1.0352761804100825 -3.8637033051562732 8
   vertex -0.5221047688802065 -3.9657794454952415 8
   vertex -0.5221047688802065 -3.9657794454952415 16
  endloop
 endfacet
 facet normal -0.1950903220161281 -0.9807852804032304 0
  outer loop
   vertex -1.0352761804100825 -3.8637033051562732 8
   vertex -0.5221047688802065 -3.9657794454952415 16
   vertex -1.0352761804100825 -3.8637033051562732 16
  endloop
 endfacet
 facet normal -0.06540312923014337 -0.9978589232386035 0
  outer loop
   vertex -0.5221047688802065 -3.9657794454952415 8
   vertex -7.347880794884119e-16 -4 8
   vertex -7.347880794884119e-16 -4 16
  endloop
 endfacet
 facet normal -0.06540312923014337 -0.9978589232386035 0
  outer loop
   vertex -0.5221047688802065 -3.9657794454952415 8
   vertex -7.347880794884119e-16 -4 16
   vertex -0.5221047688802065 -3.9657794454952415 16
  endloop
 endfacet
 facet normal 0.06540312923014252 -0.9978589232386037 0
  outer loop
   vertex -7.347880794884119e-16 -4 8
   vertex 0.5221047688802051 -3.965779445495242 8
   vertex 0.5221047688802051 -3.965779445495242 16
  endloop
 endfacet
 facet normal 0.06540312923014252 -0.9978589232386037 0
  outer loop
   vertex -7.347880794884119e-16 -4 8
   vertex 0.5221047688802051 -3.965779445495242 16
   vertex -7.347880794884119e-16 -4 16
  endloop
 endfacet
 facet normal 0.19509032201612808 -0.9807852804032304 0
  outer loop
   vertex 0.5221047688802051 -3.965779445495242 8
   vertex 1.0352761804100812 -3.8637033051562737 8
   vertex 1.0352761804100812 -3.8637033051562737 16
  endloop
 endfacet
 facet normal 0.19509032201612808 -0.9807852804032304 0
  outer loop
   vertex 0.5221047688802051 -3.965779445495242 8
   vertex 1.0352761804100812 -3.8637033051562737 16
   vertex 0.5221047688802051 -3.965779445495242 16
  endloop
 endfacet
 facet normal 0.3214394653031614 -0.9469301294951057 0
  outer loop
   vertex 1.0352761804100812 -3.8637033051562737 8
   vertex 1.5307337294603567 -3.695518130045148 8
   vertex 1.5307337294603567 -3.695518130045148 16
  endloop
 endfacet
 facet normal 0.3214394653031614 -0.9469301294951057 0
  outer loop
   vertex 1.0352761804100812 -3.8637033051562737 8
   vertex 1.5307337294603567 -3.695518130045148 16
   vertex 1.0352761804100812 -3.8637033051562737 16
  endloop
 endfacet
 facet normal 0.44228869021900064 -0.8968727415326885 0
  outer loop
   vertex 1.5307337294603567 -3.695518130045148 8
   vertex 2.0000000000000004 -3.4641016151377544 8
   vertex 2.0000000000000004 -3.4641016151377544 16
  endloop
 endfacet
 facet normal 0.44228869021900064 -0.8968727415326885 0
  outer loop
   vertex 1.5307337294603567 -3.695518130045148 8
   vertex 2.0000000000000004 -3.4641016151377544 16
   vertex 1.5307337294603567 -3.695518130045148 16
  endloop
 endfacet
 facet normal 0.5555702330196021 -0.8314696123025453 0
  outer loop
   vertex 2.0000000000000004 -3.4641016151377544 8
   vertex 2.4350457160348795 -3.173413361164943 8
   vertex 2.4350457160348795 -3.173413361164943 16
  endloop
 endfacet
 facet normal 0.5555702330196021 -0.8314696123025453 0
  outer loop
   vertex 2.0000000000000004 -3.4641016151377544 8
   vertex 2.4350457160348795 -3.173413361164943 16
   vertex 2.0000000000000004 -3.4641016151377544 16
  endloop
 endfacet
 facet normal 0.6593458151000683 -0.7518398074789778 0
  outer loop
   vertex 2.4350457160348795 -3.173413361164943 8
   vertex 2.8284271247461894 -2.8284271247461907 8
   vertex 2.8284271247461894 -2.8284271247461907 16
  endloop
 endfacet
 facet normal 0.6593458151000683 -0.7518398074789778 0
  outer loop
   vertex 2.4350457160348795 -3.173413361164943 8
   vertex 2.8284271247461894 -2.8284271247461907 16
   vertex 2.4350457160348795 -3.173413361164943 16
  endloop
 endfacet
 facet normal 0.7518398074789774 -0.659345815100069 0
  outer loop
   vertex 2.8284271247461894 -2.8284271247461907 8
   vertex 3.1734133611649398 -2.4350457160348835 8
   vertex 3.1734133611649398 -2.4350457160348835 16
  endloop
 endfacet
 facet normal 0.7518398074789774 -0.659345815100069 0
  outer loop
   vertex 2.8284271247461894 -2.8284271247461907 8
   vertex 3.1734133611649398 -2.4350457160348835 16
   vertex 2.8284271247461894 -2.8284271247461907 16
  endloop
 endfacet
 facet normal 0.831469612302545 -0.5555702330196027 0
  outer loop
   vertex 3.1734133611649398 -2.4350457160348835 8
   vertex 3.4641016151377535 -2.0000000000000018 8
   vertex 3.4641016151377535 -2.0000000000000018 16
  endloop
 endfacet
 facet normal 0.831469612302545 -0.5555702330196027 0
  outer loop
   vertex 3.1734133611649398 -2.4350457160348835 8
   vertex 3.4641016151377535 -2.0000000000000018 16
   vertex 3.1734133611649398 -2.4350457160348835 16
  endloop
 endfacet
 facet normal 0.8968727415326883 -0.4422886902190016 0
  outer loop
   vertex 3.4641016151377535 -2.0000000000000018 8
   vertex 3.6955181300451474 -1.5307337294603582 8
   vertex 3.6955181300451474 -1.5307337294603582 16
  endloop
 endfacet
 facet normal 0.8968727415326883 -0.4422886902190016 0
  outer loop
   vertex 3.4641016151377535 -2.0000000000000018 8
   vertex 3.6955181300451474 -1.5307337294603582 16
   vertex 3.4641016151377535 -2.0000000000000018 16
  endloop
 endfacet
 facet normal 0.9469301294951054 -0.3214394653031619 0
  outer loop
   vertex 3.6955181300451474 -1.5307337294603582 8
   vertex 3.8637033051562724 -1.0352761804100863 8
   vertex 3.8637033051562724 -1.0352761804100863 16
  endloop
 endfacet
 facet normal 0.9469301294951054 -0.3214394653031619 0
  outer loop
   vertex 3.6955181300451474 -1.5307337294603582 8
   vertex 3.8637033051562724 -1.0352761804100863 16
   vertex 3.6955181300451474 -1.5307337294603582 16
  endloop
 endfacet
 facet normal 0.9807852804032304 -0.19509032201612844 0
  outer loop
   vertex 3.8637033051562724 -1.0352761804100863 8
   vertex 3.9657794454952415 -0.5221047688802067 8
   vertex 3.9657794454952415 -0.5221047688802067 16
  endloop
 endfacet
 facet normal 0.9807852804032304 -0.19509032201612844 0
  outer loop
   vertex 3.8637033051562724 -1.0352761804100863 8
   vertex 3.9657794454952415 -0.5221047688802067 16
   vertex 3.8637033051562724 -1.0352761804100863 16
  endloop
 endfacet
 facet normal 0.9978589232386035 -0.06540312923014324 0
  outer loop
   vertex 3.9657794454952415 -0.5221047688802067 8
   vertex 4 0 8
   vertex 4 0 16
  endloop
 endfacet
 facet normal 0.9978589232386035 -0.06540312923014324 0
  outer loop
   vertex 3.9657794454952415 -0.5221047688802067 8
   vertex 4 0 16
   vertex 3.9657794454952415 -0.5221047688802067 16
  endloop
 endfacet
 facet normal 0 0 -1
  outer loop
   vertex 3.9657794454952415 -0.5221047688802067 8
   vertex 3.8637033051562724 -1.0352761804100863 8
   vertex 3.6955181300451474 -1.5307337294603582 8
  endloop
 endfacet
 facet normal 0 0 -1
  outer loop
   vertex 3.9657794454952415 -0.5221047688802067 8
   vertex 3.6955181300451474 -1.5307337294603582 8
   vertex 3.4641016151377535 -2.0000000000000018 8
  endloop
 endfacet
 facet normal 0 0 -1
  outer loop
   vertex 3.9657794454952415 -0.5221047688802067 8
   vertex 3.4641016151377535 -2.0000000000000018 8
   vertex 3.1734133611649398 -2.4350457160348835 8
  endloop
 endfacet
 facet normal 0 0 -1
  outer loop
   vertex 3.9657794454952415 -0.5221047688802067 8
   vertex 3.1734133611649398 -2.4350457160348835 8
   vertex 2.8284271247461894 -2.8284271247461907 8
  endloop
 endfacet
 facet normal 0 0 -1
  outer loop
   vertex 3.9657794454952415 -0.5221047688802067 8
   vertex 2.8284271247461894 -2.8284271247461907 8
   vertex 2.4350457160348795 -3.173413361164943 8
  endloop
 endfacet
 facet normal 0 0 -1
  outer loop
   vertex 3.9657794454952415 -0.5221047688802067 8
   vertex 2.4350457160348795 -3.173413361164943 8
   vertex 2.0000000000000004 -3.4641016151377544 8
  endloop
 endfacet
 facet normal 0 0 -1
  outer loop
   vertex 3.9657794454952415 -0.5221047688802067 8
   vertex 2.0000000000000004 -3.4641016151377544 8
   vertex 1.5307337294603567 -3.695518130045148 8
  endloop
 endfacet
 facet normal 0 0 -1
  outer loop
   vertex 3.9657794454952415 -0.5221047688802067 8
   vertex 1.5307337294603567 -3.695518130045148 8
   vertex 1.0352761804100812 -3.8637033051562737 8
  endloop
 endfacet
 facet normal 0 0 -1
  outer loop
   vertex 3.9657794454952415 -0.5221047688802067 8
   vertex 1.0352761804100812 -3.8637033051562737 8
   vertex 0.5221047688802051 -3.965779445495242 8
  endloop
 endfacet
 facet normal 0 0 -1
  outer loop
   vertex 3.9657794454952415 -0.5221047688802067 8
   vertex 0.5221047688802051 -3.965779445495242 8
   vertex -7.347880794884119e-16 -4 8
  endloop
 endfacet
 facet normal 0 0 -1
  outer loop
   vertex 3.9657794454952415 -0.5221047688802067 8
   vertex -7.347880794884119e-16 -4 8
   vertex -0.5221047688802065 -3.9657794454952415 8
  endloop
 endfacet
 facet normal 0 0 -1
  outer loop
   vertex 3.9657794454952415 -0.5221047688802067 8
   vertex -0.5221047688802065 -3.9657794454952415 8
   vertex -1.0352761804100825 -3.8637033051562732 8
  endloop
 endfacet
 facet normal 0 0 -1
  outer loop
   vertex 3.9657794454952415 -0.5221047688802067 8
   vertex -1.0352761804100825 -3.8637033051562732 8
   vertex -1.530733729460358 -3.6955181300451474 8
  endloop
 endfacet
 facet normal 0 0 -1
  outer loop
   vertex 3.9657794454952415 -0.5221047688802067 8
   vertex -1.530733729460358 -3.6955181300451474 8
   vertex -2.0000000000000018 -3.464101615137754 8
  endloop
 endfacet
 facet normal 0 0 -1
  outer loop
   vertex 3.9657794454952415 -0.5221047688802067 8
   vertex -2.0000000000000018 -3.464101615137754 8
   vertex -2.4350457160348835 -3.1734133611649398 8
  endloop
 endfacet
 facet normal 0 0 -1
  outer loop
   vertex 3.9657794454952415 -0.5221047688802067 8
   vertex -2.4350457160348835 -3.1734133611649398 8
   vertex -2.8284271247461916 -2.8284271247461885 8
  endloop
 endfacet
 facet normal 0 0 -1
  outer loop
   vertex 3.9657794454952415 -0.5221047688802067 8
   vertex -2.8284271247461916 -2.8284271247461885 8
   vertex -3.1734133611649407 -2.4350457160348826 8
  endloop
 endfacet
 facet normal 0 0 -1
  outer loop
   vertex 3.9657794454952415 -0.5221047688802067 8
   vertex -3.1734133611649407 -2.4350457160348826 8
   vertex -3.4641016151377553 -1.999999999999999 8
  endloop
 endfacet
 facet normal 0 0 -1
  outer loop
   vertex 3.9657794454952415 -0.5221047688802067 8
   vertex -3.4641016151377553 -1.999999999999999 8
   vertex -3.6955181300451474 -1.5307337294603587 8
  endloop
 endfacet
 facet normal 0 0 -1
  outer loop
   vertex 3.9657794454952415 -0.5221047688802067 8
   vertex -3.6955181300451474 -1.5307337294603587 8
   vertex -3.8637033051562732 -1.0352761804100832 8
  endloop
 endfacet
 facet normal 0 0 -1
  outer loop
   vertex 3.9657794454952415 -0.5221047688802067 8
   vertex -3.8637033051562732 -1.0352761804100832 8
   vertex -3.9657794454952415 -0.5221047688802071 8
  endloop
 endfacet
 facet normal 0 0 -1
  outer loop
   vertex 3.9657794454952415 -0.5221047688802067 8
   vertex -3.9657794454952415 -0.5221047688802071 8
   vertex -4 4.898587196589413e-16 8
  endloop
 endfacet
 facet normal 0 0 -1
  outer loop
   vertex 3.9657794454952415 -0.5221047688802067 8
   vertex -4 4.898587196589413e-16 8
   vertex -3.9657794454952415 0.522104768880208 8
  endloop
 endfacet
 facet normal 0 0 -1
  outer loop
   vertex 3.9657794454952415 -0.5221047688802067 8
   vertex -3.9657794454952415 0.522104768880208 8
   vertex -3.863703305156273 1.035276180410084 8
  endloop
 endfacet
 facet normal 0 0 -1
  outer loop
   vertex 3.9657794454952415 -0.5221047688802067 8
   vertex -3.863703305156273 1.035276180410084 8
   vertex -3.695518130045147 1.5307337294603596 8
  endloop
 endfacet
 facet normal 0 0 -1
  outer loop
   vertex 3.9657794454952415 -0.5221047688802067 8
   vertex -3.695518130045147 1.5307337294603596 8
   vertex -3.464101615137755 1.9999999999999998 8
  endloop
 endfacet
 facet normal 0 0 -1
  outer loop
   vertex 3.9657794454952415 -0.5221047688802067 8
   vertex -3.464101615137755 1.9999999999999998 8
   vertex -3.17341336116494 2.4350457160348835 8
  endloop
 endfacet
 facet normal 0 0 -1
  outer loop
   vertex 3.9657794454952415 -0.5221047688802067 8
   vertex -3.17341336116494 2.4350457160348835 8
   vertex -2.82842712474619 2.8284271247461903 8
  endloop
 endfacet
 facet normal 0 0 -1
  outer loop
   vertex 3.9657794454952415 -0.5221047688802067 8
   vertex -2.82842712474619 2.8284271247461903 8
   vertex -2.4350457160348826 3.1734133611649407 8
  endloop
 endfacet
 facet normal 0 0 -1
  outer loop
   vertex 3.9657794454952415 -0.5221047688802067 8
   vertex -2.4350457160348826 3.1734133611649407 8
   vertex -1.9999999999999991 3.464101615137755 8
  endloop
 endfacet
 facet normal 0 0 -1
  outer loop
   vertex 3.9657794454952415 -0.5221047688802067 8
   vertex -1.9999999999999991 3.464101615137755 8
   vertex -1.530733729460358 3.6955181300451474 8
  endloop
 endfacet
 facet normal 0 0 -1
  outer loop
   vertex 3.9657794454952415 -0.5221047688802067 8
   vertex -1.530733729460358 3.6955181300451474 8
   vertex -1.0352761804100825 3.8637033051562732 8
  endloop
 endfacet
 facet normal 0 0 -1
  outer loop
   vertex 3.9657794454952415 -0.5221047688802067 8
   vertex -1.0352761804100825 3.8637033051562732 8
   vertex -0.5221047688802064 3.9657794454952415 8
  endloop
 endfacet
 facet normal 0 0 -1
  outer loop
   vertex 3.9657794454952415 -0.5221047688802067 8
   vertex -0.5221047688802064 3.9657794454952415 8
   vertex 2.4492935982947064e-16 4 8
  endloop
 endfacet
 facet normal 0 0 -1
  outer loop
   vertex 3.9657794454952415 -0.5221047688802067 8
   vertex 2.4492935982947064e-16 4 8
   vertex 0.5221047688802068 3.9657794454952415 8
  endloop
 endfacet
 facet normal 0 0 -1
  outer loop
   vertex 3.9657794454952415 -0.5221047688802067 8
   vertex 0.5221047688802068 3.9657794454952415 8
   vertex 1.035276180410083 3.8637033051562732 8
  endloop
 endfacet
 facet normal 0 0 -1
  outer loop
   vertex 3.9657794454952415 -0.5221047688802067 8
   vertex 1.035276180410083 3.8637033051562732 8
   vertex 1.5307337294603593 3.695518130045147 8
  endloop
 endfacet
 facet normal 0 0 -1
  outer loop
   vertex 3.9657794454952415 -0.5221047688802067 8
   vertex 1.5307337294603593 3.695518130045147 8
   vertex 2.0000000000000004 3.4641016151377544 8
  endloop
 endfacet
 facet normal 0 0 -1
  outer loop
   vertex 3.9657794454952415 -0.5221047688802067 8
   vertex 2.0000000000000004 3.4641016151377544 8
   vertex 2.4350457160348826 3.1734133611649407 8
  endloop
 endfacet
 facet normal 0 0 -1
  outer loop
   vertex 3.9657794454952415 -0.5221047688802067 8
   vertex 2.4350457160348826 3.1734133611649407 8
   vertex 2.8284271247461903 2.82842712474619 8
  endloop
 endfacet
 facet normal 0 0 -1
  outer loop
   vertex 3.9657794454952415 -0.5221047688802067 8
   vertex 2.8284271247461903 2.82842712474619 8
   vertex 3.1734133611649407 2.4350457160348826 8
  endloop
 endfacet
 facet normal 0 0 -1
  outer loop
   vertex 3.9657794454952415 -0.5221047688802067 8
   vertex 3.1734133611649407 2.4350457160348826 8
   vertex 3.464101615137755 1.9999999999999998 8
  endloop
 endfacet
 facet normal 0 0 -1
  outer loop
   vertex 3.9657794454952415 -0.5221047688802067 8
   vertex 3.464101615137755 1.9999999999999998 8
   vertex 3.695518130045147 1.5307337294603591 8
  endloop
 endfacet
 facet normal 0 0 -1
  outer loop
   vertex 3.9657794454952415 -0.5221047688802067 8
   vertex 3.695518130045147 1.5307337294603591 8
   vertex 3.8637033051562732 1.035276180410083 8
  endloop
 endfacet
 facet normal 0 0 -1
  outer loop
   vertex 3.9657794454952415 -0.5221047688802067 8
   vertex 3.8637033051562732 1.035276180410083 8
   vertex 3.9657794454952415 0.5221047688802063 8
  endloop
 endfacet
 facet normal 0 0 -1
  outer loop
   vertex 3.9657794454952415 -0.5221047688802067 8
   vertex 3.9657794454952415 0.5221047688802063 8
   vertex 4 0 8
  endloop
 endfacet
 facet normal 0 0 1
  outer loop
   vertex 4 0 16
   vertex 3.9657794454952415 0.5221047688802063 16
   vertex 3.8637033051562732 1.035276180410083 16
  endloop
 endfacet
 facet normal 0 0 1
  outer loop
   vertex 4 0 16
   vertex 3.8637033051562732 1.035276180410083 16
   vertex 3.695518130045147 1.5307337294603591 16
  endloop
 endfacet
 facet normal 0 0 1
  outer loop
   vertex 4 0 16
   vertex 3.695518130045147 1.5307337294603591 16
   vertex 3.464101615137755 1.9999999999999998 16
  endloop
 endfacet
 facet normal 0 0 1
  outer loop
   vertex 4 0 16
   vertex 3.464101615137755 1.9999999999999998 16
   vertex 3.1734133611649407 2.4350457160348826 16
  endloop
 endfacet
 facet normal 0 0 1
  outer loop
   vertex 4 0 16
   vertex 3.1734133611649407 2.4350457160348826 16
   vertex 2.8284271247461903 2.82842712474619 16
  endloop
 endfacet
 facet normal 0 0 1
  outer loop
   vertex 4 0 16
   vertex 2.8284271247461903 2.82842712474619 16
   vertex 2.4350457160348826 3.1734133611649407 16
  endloop
 endfacet
 facet normal 0 0 1
  outer loop
   vertex 4 0 16
   vertex 2.4350457160348826 3.1734133611649407 16
   vertex 2.0000000000000004 3.4641016151377544 16
  endloop
 endfacet
 facet normal 0 0 1
  outer loop
   vertex 4 0 16
   vertex 2.0000000000000004 3.4641016151377544 16
   vertex 1.5307337294603593 3.695518130045147 16
  endloop
 endfacet
 facet normal 0 0 1
  outer loop
   vertex 4 0 16
   vertex 1.5307337294603593 3.695518130045147 16
   vertex 1.035276180410083 3.8637033051562732 16
  endloop
 endfacet
 facet normal 0 0 1
  outer loop
   vertex 4 0 16
   vertex 1.035276180410083 3.8637033051562732 16
   vertex 0.5221047688802068 3.9657794454952415 16
  endloop
 endfacet
 facet normal 0 0 1
  outer loop
   vertex 4 0 16
   vertex 0.5221047688802068 3.9657794454952415 16
   vertex 2.4492935982947064e-16 4 16
  endloop
 endfacet
 facet normal 0 0 1
  outer loop
   vertex 4 0 16
   vertex 2.4492935982947064e-16 4 16
   vertex -0.5221047688802064 3.9657794454952415 16
  endloop
 endfacet
 facet normal 0 0 1
  outer loop
   vertex 4 0 16
   vertex -0.5221047688802064 3.9657794454952415 16
   vertex -1.0352761804100825 3.8637033051562732 16
  endloop
 endfacet
 facet normal 0 0 1
  outer loop
   vertex 4 0 16
   vertex -1.0352761804100825 3.8637033051562732 16
   vertex -1.530733729460358 3.6955181300451474 16
  endloop
 endfacet
 facet normal 0 0 1
  outer loop
   vertex 4 0 16
   vertex -1.530733729460358 3.6955181300451474 16
   vertex -1.9999999999999991 3.464101615137755 16
  endloop
 endfacet
 facet normal 0 0 1
  outer loop
   vertex 4 0 16
   vertex -1.9999999999999991 3.464101615137755 16
   vertex -2.4350457160348826 3.1734133611649407 16
  endloop
 endfacet
 facet normal 0 0 1
  outer loop
   vertex 4 0 16
   vertex -2.4350457160348826 3.1734133611649407 16
   vertex -2.82842712474619 2.8284271247461903 16
  endloop
 endfacet
 facet normal 0 0 1
  outer loop
   vertex 4 0 16
   vertex -2.82842712474619 2.8284271247461903 16
   vertex -3.17341336116494 2.4350457160348835 16
  endloop
 endfacet
 facet normal 0 0 1
  outer loop
   vertex 4 0 16
   vertex -3.17341336116494 2.4350457160348835 16
   vertex -3.464101615137755 1.9999999999999998 16
  endloop
 endfacet
 facet normal 0 0 1
  outer loop
   vertex 4 0 16
   vertex -3.464101615137755 1.9999999999999998 16
   vertex -3.695518130045147 1.5307337294603596 16
  endloop
 endfacet
 facet normal 0 0 1
  outer loop
   vertex 4 0 16
   vertex -3.695518130045147 1.5307337294603596 16
   vertex -3.863703305156273 1.035276180410084 16
  endloop
 endfacet
 facet normal 0 0 1
  outer loop
   vertex 4 0 16
   vertex -3.863703305156273 1.035276180410084 16
   vertex -3.9657794454952415 0.522104768880208 16
  endloop
 endfacet
 facet normal 0 0 1
  outer loop
   vertex 4 0 16
   vertex -3.9657794454952415 0.522104768880208 16
   vertex -4 4.898587196589413e-16 16
  endloop
 endfacet
 facet normal 0 0 1
  outer loop
   vertex 4 0 16
   vertex -4 4.898587196589413e-16 16
   vertex -3.9657794454952415 -0.5221047688802071 16
  endloop
 endfacet
 facet normal 0 0 1
  outer loop
   vertex 4 0 16
   vertex -3.9657794454952415 -0.5221047688802071 16
   vertex -3.8637033051562732 -1.0352761804100832 16
  endloop
 endfacet
 facet normal 0 0 1
  outer loop
   vertex 4 0 16
   vertex -3.8637033051562732 -1.0352761804100832 16
   vertex -3.6955181300451474 -1.5307337294603587 16
  endloop
 endfacet
 facet normal 0 0 1
  outer loop
   vertex 4 0 16
   vertex -3.6955181300451474 -1.5307337294603587 16
   vertex -3.4641016151377553 -1.999999999999999 16
  endloop
 endfacet
 facet normal 0 0 1
  outer loop
   vertex 4 0 16
   vertex -3.4641016151377553 -1.999999999999999 16
   vertex -3.1734133611649407 -2.4350457160348826 16
  endloop
 endfacet
 facet normal 0 0 1
  outer loop
   vertex 4 0 16
   vertex -3.1734133611649407 -2.4350457160348826 16
   vertex -2.8284271247461916 -2.8284271247461885 16
  endloop
 endfacet
 facet normal 0 0 1
  outer loop
   vertex 4 0 16
   vertex -2.8284271247461916 -2.8284271247461885 16
   vertex -2.4350457160348835 -3.1734133611649398 16
  endloop
 endfacet
 facet normal 0 0 1
  outer loop
   vertex 4 0 16
   vertex -2.4350457160348835 -3.1734133611649398 16
   vertex -2.0000000000000018 -3.464101615137754 16
  endloop
 endfacet
 facet normal 0 0 1
  outer loop
   vertex 4 0 16
   vertex -2.0000000000000018 -3.464101615137754 16
   vertex -1.530733729460358 -3.6955181300451474 16
  endloop
 endfacet
 facet normal 0 0 1
  outer loop
   vertex 4 0 16
   vertex -1.530733729460358 -3.6955181300451474 16
   vertex -1.0352761804100825 -3.8637033051562732 16
  endloop
 endfacet
 facet normal 0 0 1
  outer loop
   vertex 4 0 16
   vertex -1.0352761804100825 -3.8637033051562732 16
   vertex -0.5221047688802065 -3.9657794454952415 16
  endloop
 endfacet
 facet normal 0 0 1
  outer loop
   vertex 4 0 16
   vertex -0.5221047688802065 -3.9657794454952415 16
   vertex -7.347880794884119e-16 -4 16
  endloop
 endfacet
 facet normal 0 0 1
  outer loop
   vertex 4 0 16
   vertex -7.347880794884119e-16 -4 16
   vertex 0.5221047688802051 -3.965779445495242 16
  endloop
 endfacet
 facet normal 0 0 1
  outer loop
   vertex 4 0 16
   vertex 0.5221047688802051 -3.965779445495242 16
   vertex 1.0352761804100812 -3.8637033051562737 16
  endloop
 endfacet
 facet normal 0 0 1
  outer loop
   vertex 4 0 16
   vertex 1.0352761804100812 -3.8637033051562737 16
   vertex 1.5307337294603567 -3.695518130045148 16
  endloop
 endfacet
 facet normal 0 0 1
  outer loop
   vertex 4 0 16
   vertex 1.5307337294603567 -3.695518130045148 16
   vertex 2.0000000000000004 -3.4641016151377544 16
  endloop
 endfacet
 facet normal 0 0 1
  outer loop
   vertex 4 0 16
   vertex 2.0000000000000004 -3.4641016151377544 16
   vertex 2.4350457160348795 -3.173413361164943 16
  endloop
 endfacet
 facet normal 0 0 1
  outer loop
   vertex 4 0 16
   vertex 2.4350457160348795 -3.173413361164943 16
   vertex 2.8284271247461894 -2.8284271247461907 16
  endloop
 endfacet
 facet normal 0 0 1
  outer loop
   vertex 4 0 16
   vertex 2.8284271247461894 -2.8284271247461907 16
   vertex 3.1734133611649398 -2.4350457160348835 16
  endloop
 endfacet
 facet normal 0 0 1
  outer loop
   vertex 4 0 16
   vertex 3.1734133611649398 -2.4350457160348835 16
   vertex 3.4641016151377535 -2.0000000000000018 16
  endloop
 endfacet
 facet normal 0 0 1
  outer loop
   vertex 4 0 16
   vertex 3.4641016151377535 -2.0000000000000018 16
   vertex 3.6955181300451474 -1.5307337294603582 16
  endloop
 endfacet
 facet normal 0 0 1
  outer loop
   vertex 4 0 16
   vertex 3.6955181300451474 -1.5307337294603582 16
   vertex 3.8637033051562724 -1.0352761804100863 16
  endloop
 endfacet
 facet normal 0 0 1
  outer loop
   vertex 4 0 16
   vertex 3.8637033051562724 -1.0352761804100863 16
   vertex 3.9657794454952415 -0.5221047688802067 16
  endloop
 endfacet
endsolid cat_watch_enclosure
