# ESP32-S3 OV3660 cat watch enclosure preview
v -41.000 -31.000 18.000
v 41.000 -31.000 18.000
v 41.000 31.000 18.000
v -41.000 31.000 18.000
v -41.000 -31.000 48.000
v 41.000 -31.000 48.000
v 41.000 31.000 48.000
v -41.000 31.000 48.000
v -34.000 -24.000 20.000
v 34.000 -24.000 20.000
v 34.000 24.000 20.000
v -34.000 24.000 20.000
v -34.000 -24.000 43.000
v 34.000 -24.000 43.000
v 34.000 24.000 43.000
v -34.000 24.000 43.000
v 7.000 -32.500 37.000
v 6.940 -32.500 37.914
v 6.761 -32.500 38.812
v 6.467 -32.500 39.679
v 6.062 -32.500 40.500
v 5.553 -32.500 41.261
v 4.950 -32.500 41.950
v 4.261 -32.500 42.553
v 3.500 -32.500 43.062
v 2.679 -32.500 43.467
v 1.812 -32.500 43.761
v 0.914 -32.500 43.940
v 0.000 -32.500 44.000
v -0.914 -32.500 43.940
v -1.812 -32.500 43.761
v -2.679 -32.500 43.467
v -3.500 -32.500 43.062
v -4.261 -32.500 42.553
v -4.950 -32.500 41.950
v -5.553 -32.500 41.261
v -6.062 -32.500 40.500
v -6.467 -32.500 39.679
v -6.761 -32.500 38.812
v -6.940 -32.500 37.914
v -7.000 -32.500 37.000
v -6.940 -32.500 36.086
v -6.761 -32.500 35.188
v -6.467 -32.500 34.321
v -6.062 -32.500 33.500
v -5.553 -32.500 32.739
v -4.950 -32.500 32.050
v -4.261 -32.500 31.447
v -3.500 -32.500 30.938
v -2.679 -32.500 30.533
v -1.812 -32.500 30.239
v -0.914 -32.500 30.060
v -0.000 -32.500 30.000
v 0.914 -32.500 30.060
v 1.812 -32.500 30.239
v 2.679 -32.500 30.533
v 3.500 -32.500 30.938
v 4.261 -32.500 31.447
v 4.950 -32.500 32.050
v 5.553 -32.500 32.739
v 6.062 -32.500 33.500
v 6.467 -32.500 34.321
v 6.761 -32.500 35.188
v 6.940 -32.500 36.086
v 7.000 -35.500 37.000
v 6.940 -35.500 37.914
v 6.761 -35.500 38.812
v 6.467 -35.500 39.679
v 6.062 -35.500 40.500
v 5.553 -35.500 41.261
v 4.950 -35.500 41.950
v 4.261 -35.500 42.553
v 3.500 -35.500 43.062
v 2.679 -35.500 43.467
v 1.812 -35.500 43.761
v 0.914 -35.500 43.940
v 0.000 -35.500 44.000
v -0.914 -35.500 43.940
v -1.812 -35.500 43.761
v -2.679 -35.500 43.467
v -3.500 -35.500 43.062
v -4.261 -35.500 42.553
v -4.950 -35.500 41.950
v -5.553 -35.500 41.261
v -6.062 -35.500 40.500
v -6.467 -35.500 39.679
v -6.761 -35.500 38.812
v -6.940 -35.500 37.914
v -7.000 -35.500 37.000
v -6.940 -35.500 36.086
v -6.761 -35.500 35.188
v -6.467 -35.500 34.321
v -6.062 -35.500 33.500
v -5.553 -35.500 32.739
v -4.950 -35.500 32.050
v -4.261 -35.500 31.447
v -3.500 -35.500 30.938
v -2.679 -35.500 30.533
v -1.812 -35.500 30.239
v -0.914 -35.500 30.060
v -0.000 -35.500 30.000
v 0.914 -35.500 30.060
v 1.812 -35.500 30.239
v 2.679 -35.500 30.533
v 3.500 -35.500 30.938
v 4.261 -35.500 31.447
v 4.950 -35.500 32.050
v 5.553 -35.500 32.739
v 6.062 -35.500 33.500
v 6.467 -35.500 34.321
v 6.761 -35.500 35.188
v 6.940 -35.500 36.086
v -6.000 29.000 24.500
v 6.000 29.000 24.500
v 6.000 33.000 24.500
v -6.000 33.000 24.500
v -6.000 29.000 31.500
v 6.000 29.000 31.500
v 6.000 33.000 31.500
v -6.000 33.000 31.500
v -20.500 -12.000 47.000
v -15.500 -12.000 47.000
v -15.500 12.000 47.000
v -20.500 12.000 47.000
v -20.500 -12.000 49.000
v -15.500 -12.000 49.000
v -15.500 12.000 49.000
v -20.500 12.000 49.000
v -11.500 -12.000 47.000
v -6.500 -12.000 47.000
v -6.500 12.000 47.000
v -11.500 12.000 47.000
v -11.500 -12.000 49.000
v -6.500 -12.000 49.000
v -6.500 12.000 49.000
v -11.500 12.000 49.000
v -2.500 -12.000 47.000
v 2.500 -12.000 47.000
v 2.500 12.000 47.000
v -2.500 12.000 47.000
v -2.500 -12.000 49.000
v 2.500 -12.000 49.000
v 2.500 12.000 49.000
v -2.500 12.000 49.000
v 6.500 -12.000 47.000
v 11.500 -12.000 47.000
v 11.500 12.000 47.000
v 6.500 12.000 47.000
v 6.500 -12.000 49.000
v 11.500 -12.000 49.000
v 11.500 12.000 49.000
v 6.500 12.000 49.000
v 15.500 -12.000 47.000
v 20.500 -12.000 47.000
v 20.500 12.000 47.000
v 15.500 12.000 47.000
v 15.500 -12.000 49.000
v 20.500 -12.000 49.000
v 20.500 12.000 49.000
v 15.500 12.000 49.000
v -35.000 -25.000 22.000
v 35.000 -25.000 22.000
v 35.000 25.000 22.000
v -35.000 25.000 22.000
v -35.000 -25.000 23.600
v 35.000 -25.000 23.600
v 35.000 25.000 23.600
v -35.000 25.000 23.600
v -41.000 -31.000 12.000
v 41.000 -31.000 12.000
v 41.000 31.000 12.000
v -41.000 31.000 12.000
v -41.000 -31.000 14.000
v 41.000 -31.000 14.000
v 41.000 31.000 14.000
v -41.000 31.000 14.000
v -31.000 -24.000 -8.000
v 31.000 -24.000 -8.000
v 31.000 24.000 -8.000
v -31.000 24.000 -8.000
v -31.000 -24.000 8.000
v 31.000 -24.000 8.000
v 31.000 24.000 8.000
v -31.000 24.000 8.000
v -12.000 -6.500 -4.000
v 12.000 -6.500 -4.000
v 12.000 6.500 -4.000
v -12.000 6.500 -4.000
v -12.000 -6.500 18.000
v 12.000 -6.500 18.000
v 12.000 6.500 18.000
v -12.000 6.500 18.000
v 4.000 0.000 8.000
v 3.966 0.522 8.000
v 3.864 1.035 8.000
v 3.696 1.531 8.000
v 3.464 2.000 8.000
v 3.173 2.435 8.000
v 2.828 2.828 8.000
v 2.435 3.173 8.000
v 2.000 3.464 8.000
v 1.531 3.696 8.000
v 1.035 3.864 8.000
v 0.522 3.966 8.000
v 0.000 4.000 8.000
v -0.522 3.966 8.000
v -1.035 3.864 8.000
v -1.531 3.696 8.000
v -2.000 3.464 8.000
v -2.435 3.173 8.000
v -2.828 2.828 8.000
v -3.173 2.435 8.000
v -3.464 2.000 8.000
v -3.696 1.531 8.000
v -3.864 1.035 8.000
v -3.966 0.522 8.000
v -4.000 0.000 8.000
v -3.966 -0.522 8.000
v -3.864 -1.035 8.000
v -3.696 -1.531 8.000
v -3.464 -2.000 8.000
v -3.173 -2.435 8.000
v -2.828 -2.828 8.000
v -2.435 -3.173 8.000
v -2.000 -3.464 8.000
v -1.531 -3.696 8.000
v -1.035 -3.864 8.000
v -0.522 -3.966 8.000
v -0.000 -4.000 8.000
v 0.522 -3.966 8.000
v 1.035 -3.864 8.000
v 1.531 -3.696 8.000
v 2.000 -3.464 8.000
v 2.435 -3.173 8.000
v 2.828 -2.828 8.000
v 3.173 -2.435 8.000
v 3.464 -2.000 8.000
v 3.696 -1.531 8.000
v 3.864 -1.035 8.000
v 3.966 -0.522 8.000
v 4.000 0.000 16.000
v 3.966 0.522 16.000
v 3.864 1.035 16.000
v 3.696 1.531 16.000
v 3.464 2.000 16.000
v 3.173 2.435 16.000
v 2.828 2.828 16.000
v 2.435 3.173 16.000
v 2.000 3.464 16.000
v 1.531 3.696 16.000
v 1.035 3.864 16.000
v 0.522 3.966 16.000
v 0.000 4.000 16.000
v -0.522 3.966 16.000
v -1.035 3.864 16.000
v -1.531 3.696 16.000
v -2.000 3.464 16.000
v -2.435 3.173 16.000
v -2.828 2.828 16.000
v -3.173 2.435 16.000
v -3.464 2.000 16.000
v -3.696 1.531 16.000
v -3.864 1.035 16.000
v -3.966 0.522 16.000
v -4.000 0.000 16.000
v -3.966 -0.522 16.000
v -3.864 -1.035 16.000
v -3.696 -1.531 16.000
v -3.464 -2.000 16.000
v -3.173 -2.435 16.000
v -2.828 -2.828 16.000
v -2.435 -3.173 16.000
v -2.000 -3.464 16.000
v -1.531 -3.696 16.000
v -1.035 -3.864 16.000
v -0.522 -3.966 16.000
v -0.000 -4.000 16.000
v 0.522 -3.966 16.000
v 1.035 -3.864 16.000
v 1.531 -3.696 16.000
v 2.000 -3.464 16.000
v 2.435 -3.173 16.000
v 2.828 -2.828 16.000
v 3.173 -2.435 16.000
v 3.464 -2.000 16.000
v 3.696 -1.531 16.000
v 3.864 -1.035 16.000
v 3.966 -0.522 16.000
f 1 2 3 4
f 5 8 7 6
f 1 5 6 2
f 2 6 7 3
f 3 7 8 4
f 4 8 5 1
f 9 10 11 12
f 13 16 15 14
f 9 13 14 10
f 10 14 15 11
f 11 15 16 12
f 12 16 13 9
f 17 18 66 65
f 18 19 67 66
f 19 20 68 67
f 20 21 69 68
f 21 22 70 69
f 22 23 71 70
f 23 24 72 71
f 24 25 73 72
f 25 26 74 73
f 26 27 75 74
f 27 28 76 75
f 28 29 77 76
f 29 30 78 77
f 30 31 79 78
f 31 32 80 79
f 32 33 81 80
f 33 34 82 81
f 34 35 83 82
f 35 36 84 83
f 36 37 85 84
f 37 38 86 85
f 38 39 87 86
f 39 40 88 87
f 40 41 89 88
f 41 42 90 89
f 42 43 91 90
f 43 44 92 91
f 44 45 93 92
f 45 46 94 93
f 46 47 95 94
f 47 48 96 95
f 48 49 97 96
f 49 50 98 97
f 50 51 99 98
f 51 52 100 99
f 52 53 101 100
f 53 54 102 101
f 54 55 103 102
f 55 56 104 103
f 56 57 105 104
f 57 58 106 105
f 58 59 107 106
f 59 60 108 107
f 60 61 109 108
f 61 62 110 109
f 62 63 111 110
f 63 64 112 111
f 64 17 65 112
f 64 63 62 61 60 59 58 57 56 55 54 53 52 51 50 49 48 47 46 45 44 43 42 41 40 39 38 37 36 35 34 33 32 31 30 29 28 27 26 25 24 23 22 21 20 19 18 17
f 65 66 67 68 69 70 71 72 73 74 75 76 77 78 79 80 81 82 83 84 85 86 87 88 89 90 91 92 93 94 95 96 97 98 99 100 101 102 103 104 105 106 107 108 109 110 111 112
f 113 114 115 116
f 117 120 119 118
f 113 117 118 114
f 114 118 119 115
f 115 119 120 116
f 116 120 117 113
f 121 122 123 124
f 125 128 127 126
f 121 125 126 122
f 122 126 127 123
f 123 127 128 124
f 124 128 125 121
f 129 130 131 132
f 133 136 135 134
f 129 133 134 130
f 130 134 135 131
f 131 135 136 132
f 132 136 133 129
f 137 138 139 140
f 141 144 143 142
f 137 141 142 138
f 138 142 143 139
f 139 143 144 140
f 140 144 141 137
f 145 146 147 148
f 149 152 151 150
f 145 149 150 146
f 146 150 151 147
f 147 151 152 148
f 148 152 149 145
f 153 154 155 156
f 157 160 159 158
f 153 157 158 154
f 154 158 159 155
f 155 159 160 156
f 156 160 157 153
f 161 162 163 164
f 165 168 167 166
f 161 165 166 162
f 162 166 167 163
f 163 167 168 164
f 164 168 165 161
f 169 170 171 172
f 173 176 175 174
f 169 173 174 170
f 170 174 175 171
f 171 175 176 172
f 172 176 173 169
f 177 178 179 180
f 181 184 183 182
f 177 181 182 178
f 178 182 183 179
f 179 183 184 180
f 180 184 181 177
f 185 186 187 188
f 189 192 191 190
f 185 189 190 186
f 186 190 191 187
f 187 191 192 188
f 188 192 189 185
f 193 194 242 241
f 194 195 243 242
f 195 196 244 243
f 196 197 245 244
f 197 198 246 245
f 198 199 247 246
f 199 200 248 247
f 200 201 249 248
f 201 202 250 249
f 202 203 251 250
f 203 204 252 251
f 204 205 253 252
f 205 206 254 253
f 206 207 255 254
f 207 208 256 255
f 208 209 257 256
f 209 210 258 257
f 210 211 259 258
f 211 212 260 259
f 212 213 261 260
f 213 214 262 261
f 214 215 263 262
f 215 216 264 263
f 216 217 265 264
f 217 218 266 265
f 218 219 267 266
f 219 220 268 267
f 220 221 269 268
f 221 222 270 269
f 222 223 271 270
f 223 224 272 271
f 224 225 273 272
f 225 226 274 273
f 226 227 275 274
f 227 228 276 275
f 228 229 277 276
f 229 230 278 277
f 230 231 279 278
f 231 232 280 279
f 232 233 281 280
f 233 234 282 281
f 234 235 283 282
f 235 236 284 283
f 236 237 285 284
f 237 238 286 285
f 238 239 287 286
f 239 240 288 287
f 240 193 241 288
f 240 239 238 237 236 235 234 233 232 231 230 229 228 227 226 225 224 223 222 221 220 219 218 217 216 215 214 213 212 211 210 209 208 207 206 205 204 203 202 201 200 199 198 197 196 195 194 193
f 241 242 243 244 245 246 247 248 249 250 251 252 253 254 255 256 257 258 259 260 261 262 263 264 265 266 267 268 269 270 271 272 273 274 275 276 277 278 279 280 281 282 283 284 285 286 287 288
